G04*
G04 #@! TF.GenerationSoftware,Altium Limited,Altium Designer,21.9.2 (33)*
G04*
G04 Layer_Color=65535*
%FSTAX24Y24*%
%MOIN*%
G70*
G04*
G04 #@! TF.SameCoordinates,C045CB64-A717-4E46-AD80-C8F196844A4B*
G04*
G04*
G04 #@! TF.FilePolarity,Positive*
G04*
G01*
G75*
%ADD10C,0.0098*%
%ADD11C,0.0079*%
%ADD12C,0.0236*%
%ADD13C,0.0039*%
%ADD14C,0.0050*%
%ADD15C,0.0070*%
%ADD16C,0.0100*%
%ADD17C,0.0080*%
%ADD18C,0.0060*%
G36*
X008989Y0109D02*
X009239Y01065D01*
Y01115D01*
X008989Y0109D01*
D02*
G37*
G36*
Y0205D02*
X009239Y02025D01*
Y02075D01*
X008989Y0205D01*
D02*
G37*
G36*
X01449Y02354D02*
X01424Y02329D01*
X01474D01*
X01449Y02354D01*
D02*
G37*
G36*
X01766Y02354D02*
X01741Y02329D01*
X01791D01*
X01766Y02354D01*
D02*
G37*
G36*
X0219Y02334D02*
X02165Y02309D01*
X02215D01*
X0219Y02334D01*
D02*
G37*
G36*
X030542Y019015D02*
X030292Y019265D01*
Y018765D01*
X030542Y019015D01*
D02*
G37*
G36*
Y023715D02*
X030292Y023965D01*
Y023465D01*
X030542Y023715D01*
D02*
G37*
D10*
X014803Y009128D02*
G03*
X014803Y009128I-000049J0D01*
G01*
X017301Y010586D02*
G03*
X017301Y010586I-000049J0D01*
G01*
X031338Y003078D02*
G03*
X031338Y003078I-000049J0D01*
G01*
X027608Y017409D02*
G03*
X027608Y017409I-000049J0D01*
G01*
X026806Y015093D02*
G03*
X026806Y015093I-000049J0D01*
G01*
X019124Y02202D02*
G03*
X019124Y02202I-000049J0D01*
G01*
X011791Y017487D02*
G03*
X011791Y017487I-000049J0D01*
G01*
X011653Y009128D02*
G03*
X011653Y009128I-000049J0D01*
G01*
X017954D02*
G03*
X017954Y009128I-000049J0D01*
G01*
X021105D02*
G03*
X021105Y009128I-000049J0D01*
G01*
D11*
X010314Y011084D02*
G03*
X010314Y011084I-000039J0D01*
G01*
X014294Y01417D02*
G03*
X014294Y01417I-000039J0D01*
G01*
X027582Y019169D02*
G03*
X027582Y019169I-000039J0D01*
G01*
X026115Y018815D02*
G03*
X026115Y018815I-000039J0D01*
G01*
X025515Y011986D02*
G03*
X025515Y011986I-000039J0D01*
G01*
X014772Y008202D02*
Y00836D01*
X012134D02*
X014772D01*
X012134Y008202D02*
Y00836D01*
X017467Y001425D02*
X019003D01*
X017467Y002685D02*
X019003D01*
X017467Y004341D02*
X019003D01*
X017467Y003081D02*
X019003D01*
X022059Y02145D02*
Y021528D01*
X022335Y02145D02*
Y021528D01*
X023045Y021139D02*
X023124D01*
X023045Y021415D02*
X023124D01*
X023053Y020468D02*
X023132D01*
X023053Y020744D02*
X023132D01*
X022335Y020346D02*
Y020424D01*
X022059Y020346D02*
Y020424D01*
X022335Y018921D02*
Y019D01*
X022059Y018921D02*
Y019D01*
X023058Y018606D02*
X023137D01*
X023058Y018882D02*
X023137D01*
X023045Y017935D02*
X023124D01*
X023045Y018211D02*
X023124D01*
X022335Y017817D02*
Y017895D01*
X022059Y017817D02*
Y017895D01*
X010611Y014667D02*
X010689D01*
X010611Y014391D02*
X010689D01*
X011715Y014391D02*
X011793D01*
X011715Y014667D02*
X011793D01*
X019261Y011316D02*
Y013383D01*
Y011316D02*
X020167D01*
X019872Y013993D02*
X020167D01*
X019261Y013383D02*
X019872Y013993D01*
X021328D02*
X021939Y013383D01*
X021033Y013993D02*
X021328D01*
X021033Y011316D02*
X021939D01*
Y013383D01*
X01813Y015262D02*
X018209D01*
X01813Y015538D02*
X018209D01*
X018093Y014538D02*
X018172D01*
X018093Y014262D02*
X018172D01*
X031211Y015638D02*
Y015717D01*
X030935Y015638D02*
Y015717D01*
X031211Y020211D02*
Y020289D01*
X030935Y020211D02*
Y020289D01*
X028965Y022512D02*
X029043D01*
X028965Y022788D02*
X029043D01*
X027861Y022788D02*
X027939D01*
X027861Y022512D02*
X027939D01*
X029019Y018567D02*
X029098D01*
X029019Y018843D02*
X029098D01*
X027911Y018843D02*
X027989D01*
X027911Y018567D02*
X027989D01*
X028962Y013211D02*
Y013289D01*
X029238Y013211D02*
Y013289D01*
X029576Y012039D02*
Y014402D01*
X029851D01*
X029576Y012039D02*
X029851D01*
X030678D02*
X030954D01*
X030678Y014402D02*
X030954D01*
Y012039D02*
Y014402D01*
X031565Y013811D02*
Y013889D01*
X03129Y013811D02*
Y013889D01*
X028867Y004063D02*
Y004151D01*
X031033Y004063D02*
Y004151D01*
X028867Y003049D02*
Y003137D01*
X031033Y003049D02*
Y003137D01*
X028867Y004151D02*
X031033D01*
X028867Y003049D02*
X031033D01*
X032367Y005837D02*
Y00694D01*
X031383Y004853D02*
X032367Y005837D01*
X026973Y004853D02*
Y00694D01*
Y004853D02*
X031383D01*
X026973Y010247D02*
X031383D01*
X026973Y00816D02*
Y010247D01*
X031383D02*
X032367Y009263D01*
Y00816D02*
Y009263D01*
X027903Y01731D02*
X028297D01*
X027903Y01609D02*
X028297D01*
X027903D02*
Y01731D01*
X028297Y01609D02*
Y01731D01*
X027002Y016736D02*
Y016815D01*
X026727Y016736D02*
Y016815D01*
X025683Y012672D02*
X025772D01*
X025683Y014837D02*
X025772D01*
X026697Y012672D02*
X026786D01*
X026697Y014837D02*
X026786D01*
X025683Y012672D02*
Y014837D01*
X026786Y012672D02*
Y014837D01*
X021285Y017453D02*
Y017532D01*
X021009Y017453D02*
Y017532D01*
X020614Y017453D02*
Y017532D01*
X020338Y017453D02*
Y017532D01*
X019943Y017453D02*
Y017532D01*
X019668Y017453D02*
Y017532D01*
X019272Y017453D02*
Y017532D01*
X018997Y017453D02*
Y017532D01*
X017962Y017811D02*
Y017889D01*
X018238Y017811D02*
Y017889D01*
X017173Y018887D02*
X017252D01*
X017173Y018612D02*
X017252D01*
X017173Y018216D02*
X017252D01*
X017173Y017941D02*
X017252D01*
X018238Y018915D02*
Y018993D01*
X017962Y018915D02*
Y018993D01*
X017189Y020464D02*
X017268D01*
X017189Y020739D02*
X017268D01*
X017189Y021135D02*
X017268D01*
X017189Y02141D02*
X017268D01*
X019517Y018453D02*
Y021918D01*
X020777Y018453D02*
Y021918D01*
X019517D02*
X020777D01*
X019517Y018453D02*
X020777D01*
X023536Y015167D02*
X024087D01*
X023536Y012293D02*
X024087D01*
X01432Y01793D02*
Y02037D01*
X01188Y01793D02*
Y02037D01*
X01432D01*
X01188Y01793D02*
X01432D01*
X017978Y02145D02*
Y021528D01*
X018254Y02145D02*
Y021528D01*
X018254Y020346D02*
Y020424D01*
X017978Y020346D02*
Y020424D01*
X008983Y008202D02*
Y00836D01*
X011621D01*
Y008202D02*
Y00836D01*
X015285Y008202D02*
Y00836D01*
X017923D01*
Y008202D02*
Y00836D01*
X018435Y008202D02*
Y00836D01*
X021073D01*
Y008202D02*
Y00836D01*
D12*
X020029Y021524D02*
G03*
X020029Y021524I-000118J0D01*
G01*
X012391Y018323D02*
G03*
X012391Y018323I-000118J0D01*
G01*
D13*
X013519Y015131D02*
G03*
X013519Y015131I-00002J0D01*
G01*
D14*
X029094Y016269D02*
X029606D01*
X029094D02*
Y017332D01*
X029114D01*
X029606Y016269D02*
Y017332D01*
X029114D02*
X029606D01*
X023446Y016636D02*
X023957D01*
X023446D02*
Y017699D01*
X023465D01*
X023957Y016636D02*
Y017699D01*
X023465D02*
X023957D01*
X026754Y020919D02*
X027266D01*
X026754D02*
Y021981D01*
X026774D01*
X027266Y020919D02*
Y021981D01*
X026774D02*
X027266D01*
X031171Y012175D02*
X031683D01*
X031171D02*
Y013238D01*
X031191D01*
X031683Y012175D02*
Y013238D01*
X031191D02*
X031683D01*
X017893Y011981D02*
X018405D01*
X017893D02*
Y013044D01*
X017913D01*
X018405Y011981D02*
Y013044D01*
X017913D02*
X018405D01*
X018525Y011981D02*
X019036D01*
X018525D02*
Y013044D01*
X018544D01*
X019036Y011981D02*
Y013044D01*
X018544D02*
X019036D01*
X01655Y019433D02*
Y019944D01*
X017613D01*
Y019925D02*
Y019944D01*
X01655Y019433D02*
X017613D01*
Y019925D01*
X015026Y015273D02*
X015538D01*
X015026D02*
Y016336D01*
X015045D01*
X015538Y015273D02*
Y016336D01*
X015045D02*
X015538D01*
X014394Y015273D02*
X014906D01*
X014394D02*
Y016336D01*
X014414D01*
X014906Y015273D02*
Y016336D01*
X014414D02*
X014906D01*
X014926Y021569D02*
X015438D01*
X014926D02*
Y022631D01*
X014945D01*
X015438Y021569D02*
Y022631D01*
X014945D02*
X015438D01*
X014296Y02159D02*
X014807D01*
X014296D02*
Y022653D01*
X014315D01*
X014807Y02159D02*
Y022653D01*
X014315D02*
X014807D01*
X013664Y02159D02*
X014176D01*
X013664D02*
Y022653D01*
X013684D01*
X014176Y02159D02*
Y022653D01*
X013684D02*
X014176D01*
X010618Y015181D02*
Y015693D01*
X011681D01*
Y015673D02*
Y015693D01*
X010618Y015181D02*
X011681D01*
Y015673D01*
X010618Y015812D02*
Y016324D01*
X011681D01*
Y016305D02*
Y016324D01*
X010618Y015812D02*
X011681D01*
Y016305D01*
X010618Y016444D02*
Y016956D01*
X011681D01*
Y016936D02*
Y016956D01*
X010618Y016444D02*
X011681D01*
Y016936D01*
X012489Y014762D02*
X012981D01*
Y013699D02*
Y014762D01*
X012469D02*
X012489D01*
X012469Y013699D02*
Y014762D01*
Y013699D02*
X012981D01*
X012906Y011468D02*
Y012531D01*
X012394Y011468D02*
X012906D01*
X012394Y012531D02*
X012906D01*
X012394Y011468D02*
Y012531D01*
X007669Y01034D02*
X008839D01*
Y01842D01*
X007669D02*
X008839D01*
X007669Y01034D02*
Y01842D01*
X007679Y01141D02*
X008839D01*
X013169Y014762D02*
X013681D01*
Y013699D02*
Y014762D01*
X013169Y013699D02*
X013681D01*
X013169D02*
Y014762D01*
X012102Y01519D02*
Y01641D01*
Y01519D02*
X013598D01*
Y01641D01*
X012102D02*
X013598D01*
X012176Y011907D02*
Y013443D01*
X010188Y011907D02*
Y013443D01*
X013488Y010561D02*
Y010639D01*
X013212Y010561D02*
Y010639D01*
X01671Y010586D02*
Y013223D01*
X01549Y010586D02*
Y013223D01*
Y010586D02*
X01671D01*
X01549Y013223D02*
X01671D01*
X014719Y0148D02*
X017081D01*
X014719Y01354D02*
X017081D01*
X031756Y015221D02*
X033039D01*
X031756Y016079D02*
X033039D01*
X031756Y019821D02*
X033039D01*
X031756Y020679D02*
X033039D01*
X027456Y019992D02*
Y021528D01*
X029444Y019992D02*
Y021528D01*
X024174Y016457D02*
Y017992D01*
X026162Y016457D02*
Y017992D01*
X026137Y008608D02*
Y009508D01*
X022137D02*
X026137D01*
X022137Y008608D02*
Y009508D01*
X028276Y002728D02*
X028724D01*
X028276Y00202D02*
X028724D01*
X01758Y01609D02*
X017323D01*
X017452Y016218D02*
Y015961D01*
X018756Y013759D02*
X019013D01*
X018884Y013631D02*
Y013888D01*
D15*
X007939Y02095D02*
X008929D01*
X007929Y024D02*
X008929D01*
X007929Y02D02*
Y024D01*
Y02D02*
X008929D01*
Y024D01*
X006529Y02D02*
X007929D01*
X006529D02*
Y024D01*
X007929D01*
X030602Y016515D02*
Y019515D01*
X031602D01*
Y016515D02*
Y019515D01*
X030602Y016515D02*
X031602D01*
X030602Y018565D02*
X031592D01*
X031602Y019505D02*
Y019515D01*
Y019505D02*
X033002D01*
Y016515D02*
Y019505D01*
X031602Y016515D02*
X033002D01*
X02239Y0235D02*
Y02468D01*
X02651Y02348D02*
Y0247D01*
X02133Y02348D02*
Y0247D01*
Y02348D02*
X02651D01*
X02133Y0247D02*
X02651D01*
X02133D02*
Y026D01*
X02651D01*
Y0247D02*
Y026D01*
X02116Y0246D02*
Y026D01*
X01716D02*
X02116D01*
X01716Y0246D02*
Y026D01*
Y0236D02*
X02116D01*
X01716D02*
Y0246D01*
X02116D01*
Y0236D02*
Y0246D01*
X01811Y0236D02*
Y02459D01*
X01399Y0236D02*
X01699D01*
X01399D02*
Y0246D01*
X01699D01*
Y0236D02*
Y0246D01*
X01494Y0236D02*
Y02459D01*
X01399Y0246D02*
X014D01*
Y026D01*
X01699D01*
Y0246D02*
Y026D01*
X030602Y021215D02*
Y024215D01*
X031602D01*
Y021215D02*
Y024215D01*
X030602Y021215D02*
X031602D01*
X030602Y023265D02*
X031592D01*
X031602Y024205D02*
Y024215D01*
Y024205D02*
X033002D01*
Y021215D02*
Y024205D01*
X031602Y021215D02*
X033002D01*
D16*
X007805Y024416D02*
X012805D01*
X007805D02*
Y026384D01*
X013805D01*
Y024416D02*
Y026384D01*
X012805Y024416D02*
X013805D01*
X015969Y001421D02*
Y004371D01*
X010507Y001421D02*
Y004371D01*
X010607Y001321D02*
X015869D01*
X010607Y004471D02*
X015869D01*
X015969Y004371D01*
X015869Y001321D02*
X015969Y001421D01*
X010507Y004371D02*
X010607Y004471D01*
X010507Y001421D02*
X010607Y001321D01*
X020766Y001575D02*
Y004525D01*
X025687Y001575D02*
Y004525D01*
X020866Y004625D02*
X025587D01*
X020866Y001475D02*
X025587D01*
X020766Y001575D02*
X020866Y001475D01*
X020766Y004525D02*
X020866Y004625D01*
X025587Y001475D02*
X025687Y001575D01*
X025587Y004625D02*
X025687Y004525D01*
D17*
X027238Y025764D02*
X027038D01*
Y025464D01*
X027238D01*
X027038Y025614D02*
X027138D01*
X027537Y025714D02*
X027487Y025764D01*
X027388D01*
X027338Y025714D01*
Y025664D01*
X027388Y025614D01*
X027487D01*
X027537Y025564D01*
Y025514D01*
X027487Y025464D01*
X027388D01*
X027338Y025514D01*
X027637Y025764D02*
Y025464D01*
X027787D01*
X027837Y025514D01*
Y025714D01*
X027787Y025764D01*
X027637D01*
X028237Y025464D02*
Y025764D01*
X028387D01*
X028437Y025714D01*
Y025614D01*
X028387Y025564D01*
X028237D01*
X028537Y025464D02*
Y025764D01*
X028687D01*
X028737Y025714D01*
Y025614D01*
X028687Y025564D01*
X028537D01*
X028637D02*
X028737Y025464D01*
X028987Y025764D02*
X028887D01*
X028837Y025714D01*
Y025514D01*
X028887Y025464D01*
X028987D01*
X029037Y025514D01*
Y025714D01*
X028987Y025764D01*
X029337D02*
X029237D01*
X029287D01*
Y025514D01*
X029237Y025464D01*
X029187D01*
X029137Y025514D01*
X029637Y025764D02*
X029437D01*
Y025464D01*
X029637D01*
X029437Y025614D02*
X029537D01*
X029937Y025714D02*
X029887Y025764D01*
X029787D01*
X029737Y025714D01*
Y025514D01*
X029787Y025464D01*
X029887D01*
X029937Y025514D01*
X030037Y025764D02*
X030237D01*
X030137D01*
Y025464D01*
X030836D02*
X030636D01*
X030836Y025664D01*
Y025714D01*
X030786Y025764D01*
X030686D01*
X030636Y025714D01*
X030936D02*
X030986Y025764D01*
X031086D01*
X031136Y025714D01*
Y025664D01*
X031086Y025614D01*
X031036D01*
X031086D01*
X031136Y025564D01*
Y025514D01*
X031086Y025464D01*
X030986D01*
X030936Y025514D01*
X031236Y025464D02*
X031336D01*
X031286D01*
Y025764D01*
X031236Y025714D01*
X031486Y025664D02*
X031536D01*
Y025614D01*
X031486D01*
Y025664D01*
Y025514D02*
X031536D01*
Y025464D01*
X031486D01*
Y025514D01*
X027038Y025212D02*
Y024912D01*
X027188D01*
X027238Y024962D01*
Y025012D01*
X027188Y025062D01*
X027038D01*
X027188D01*
X027238Y025112D01*
Y025162D01*
X027188Y025212D01*
X027038D01*
X027338Y024912D02*
Y025212D01*
X027438Y025112D01*
X027537Y025212D01*
Y024912D01*
X027837Y025162D02*
X027787Y025212D01*
X027687D01*
X027637Y025162D01*
Y025112D01*
X027687Y025062D01*
X027787D01*
X027837Y025012D01*
Y024962D01*
X027787Y024912D01*
X027687D01*
X027637Y024962D01*
X028437Y025212D02*
X028237D01*
Y025062D01*
X028337D01*
X028237D01*
Y024912D01*
X028687Y025212D02*
X028587D01*
X028537Y025162D01*
Y024962D01*
X028587Y024912D01*
X028687D01*
X028737Y024962D01*
Y025162D01*
X028687Y025212D01*
X028837Y024912D02*
Y025212D01*
X028987D01*
X029037Y025162D01*
Y025062D01*
X028987Y025012D01*
X028837D01*
X028937D02*
X029037Y024912D01*
X029637D02*
X029437D01*
X029637Y025112D01*
Y025162D01*
X029587Y025212D01*
X029487D01*
X029437Y025162D01*
X029737Y025062D02*
X029937D01*
X030037Y025162D02*
X030087Y025212D01*
X030187D01*
X030237Y025162D01*
Y025112D01*
X030187Y025062D01*
X030137D01*
X030187D01*
X030237Y025012D01*
Y024962D01*
X030187Y024912D01*
X030087D01*
X030037Y024962D01*
X030337Y025062D02*
X030537D01*
X030786Y024912D02*
Y025212D01*
X030636Y025062D01*
X030836D01*
X031136Y025162D02*
X031086Y025212D01*
X030986D01*
X030936Y025162D01*
Y025112D01*
X030986Y025062D01*
X031086D01*
X031136Y025012D01*
Y024962D01*
X031086Y024912D01*
X030986D01*
X030936Y024962D01*
X027038Y02466D02*
Y02436D01*
X027188D01*
X027238Y02441D01*
Y02446D01*
X027188Y02451D01*
X027038D01*
X027188D01*
X027238Y02456D01*
Y02461D01*
X027188Y02466D01*
X027038D01*
X027338Y02436D02*
Y02456D01*
X027438Y02466D01*
X027537Y02456D01*
Y02436D01*
Y02451D01*
X027338D01*
X027637Y02466D02*
X027837D01*
X027737D01*
Y02436D01*
X027937Y02466D02*
X028137D01*
X028037D01*
Y02436D01*
X028437Y02466D02*
X028237D01*
Y02436D01*
X028437D01*
X028237Y02451D02*
X028337D01*
X028537Y02436D02*
Y02466D01*
X028687D01*
X028737Y02461D01*
Y02451D01*
X028687Y02446D01*
X028537D01*
X028637D02*
X028737Y02436D01*
X028837Y02466D02*
Y02461D01*
X028937Y02451D01*
X029037Y02461D01*
Y02466D01*
X028937Y02451D02*
Y02436D01*
X02997Y01873D02*
Y01893D01*
X02987Y01883D02*
X03007D01*
X02982Y01923D02*
Y01903D01*
X02997D01*
X02992Y01913D01*
Y01918D01*
X02997Y01923D01*
X03007D01*
X03012Y01918D01*
Y01908D01*
X03007Y01903D01*
X030079Y016735D02*
Y016635D01*
X030129Y016585D01*
X030329D01*
X030379Y016635D01*
Y016735D01*
X030329Y016785D01*
X030129D01*
X030079Y016735D01*
Y016885D02*
X030329D01*
X030379Y016935D01*
Y017035D01*
X030329Y017085D01*
X030079D01*
Y017185D02*
Y017384D01*
Y017284D01*
X030379D01*
X02997Y02343D02*
Y02363D01*
X02987Y02353D02*
X03007D01*
X02982Y02393D02*
Y02373D01*
X02997D01*
X02992Y02383D01*
Y02388D01*
X02997Y02393D01*
X03007D01*
X03012Y02388D01*
Y02378D01*
X03007Y02373D01*
X03012Y02143D02*
Y02133D01*
X03017Y02128D01*
X03037D01*
X03042Y02133D01*
Y02143D01*
X03037Y02148D01*
X03017D01*
X03012Y02143D01*
Y02158D02*
X03037D01*
X03042Y02163D01*
Y02173D01*
X03037Y02178D01*
X03012D01*
Y02188D02*
Y02208D01*
Y02198D01*
X03042D01*
X03012Y01813D02*
X03007Y01808D01*
Y01798D01*
X03012Y01793D01*
X03032D01*
X03037Y01798D01*
Y01808D01*
X03032Y01813D01*
X03022D01*
Y01803D01*
X03017Y02278D02*
X03012Y02273D01*
Y02263D01*
X03017Y02258D01*
X03037D01*
X03042Y02263D01*
Y02273D01*
X03037Y02278D01*
X03027D01*
Y02268D01*
X01152Y02397D02*
X01157Y02392D01*
X01167D01*
X01172Y02397D01*
Y02402D01*
X01167Y02407D01*
X01157D01*
X01152Y02412D01*
Y02417D01*
X01157Y02422D01*
X01167D01*
X01172Y02417D01*
X01142Y02392D02*
Y02422D01*
X01132Y02412D01*
X01122Y02422D01*
Y02392D01*
X01287Y02397D02*
X01282Y02392D01*
X01272D01*
X01267Y02397D01*
Y02402D01*
X01272Y02407D01*
X01277D01*
X01272D01*
X01267Y02412D01*
Y02417D01*
X01272Y02422D01*
X01282D01*
X01287Y02417D01*
X01257Y02422D02*
Y02417D01*
X01252D01*
Y02422D01*
X01257D01*
X01232Y02397D02*
X01227Y02392D01*
X01217D01*
X01212Y02397D01*
Y02402D01*
X01217Y02407D01*
X01222D01*
X01217D01*
X01212Y02412D01*
Y02417D01*
X01217Y02422D01*
X01227D01*
X01232Y02417D01*
X01327Y02397D02*
X01332Y02392D01*
X01342D01*
X01347Y02397D01*
Y02417D01*
X01342Y02422D01*
X01332D01*
X01327Y02417D01*
Y02407D01*
X01337D01*
X02392Y02332D02*
Y02302D01*
X02407Y02317D01*
X02387D01*
X02357Y02307D02*
X02362Y02302D01*
X02372D01*
X02377Y02307D01*
Y02312D01*
X02372Y02317D01*
X02362D01*
X02357Y02322D01*
Y02327D01*
X02362Y02332D01*
X02372D01*
X02377Y02327D01*
X01937Y02307D02*
X01932Y02302D01*
X01922D01*
X01917Y02307D01*
Y02312D01*
X01922Y02317D01*
X01927D01*
X01922D01*
X01917Y02322D01*
Y02327D01*
X01922Y02332D01*
X01932D01*
X01937Y02327D01*
X01887Y02307D02*
X01892Y02302D01*
X01902D01*
X01907Y02307D01*
Y02312D01*
X01902Y02317D01*
X01892D01*
X01887Y02322D01*
Y02327D01*
X01892Y02332D01*
X01902D01*
X01907Y02327D01*
X01547Y02332D02*
X01567D01*
X01547Y02312D01*
Y02307D01*
X01552Y02302D01*
X01562D01*
X01567Y02307D01*
X01517D02*
X01522Y02302D01*
X01532D01*
X01537Y02307D01*
Y02312D01*
X01532Y02317D01*
X01522D01*
X01517Y02322D01*
Y02327D01*
X01522Y02332D01*
X01532D01*
X01537Y02327D01*
X00978Y01122D02*
X00948D01*
Y01102D01*
X00978Y01072D02*
Y01092D01*
X00948D01*
Y01072D01*
X00963Y01092D02*
Y01082D01*
X00978Y01062D02*
X00948D01*
Y01047D01*
X00953Y01042D01*
X00973D01*
X00978Y01047D01*
Y01062D01*
X00928Y01202D02*
X00933Y01207D01*
Y01217D01*
X00928Y01222D01*
X00923D01*
X00918Y01217D01*
Y01207D01*
X00913Y01202D01*
X00908D01*
X00903Y01207D01*
Y01217D01*
X00908Y01222D01*
X00928Y01172D02*
X00933Y01177D01*
Y01187D01*
X00928Y01192D01*
X00908D01*
X00903Y01187D01*
Y01177D01*
X00908Y01172D01*
X00933Y01162D02*
X00903D01*
X00913D01*
X00933Y01142D01*
X00918Y01157D01*
X00903Y01142D01*
X00928Y01312D02*
X00933Y01317D01*
Y01327D01*
X00928Y01332D01*
X00923D01*
X00918Y01327D01*
Y01317D01*
X00913Y01312D01*
X00908D01*
X00903Y01317D01*
Y01327D01*
X00908Y01332D01*
X00933Y01302D02*
X00903D01*
Y01287D01*
X00908Y01282D01*
X00928D01*
X00933Y01287D01*
Y01302D01*
X00903Y01272D02*
X00923D01*
X00933Y01262D01*
X00923Y01252D01*
X00903D01*
X00918D01*
Y01272D01*
X00903Y01422D02*
X00923D01*
X00933Y01412D01*
X00923Y01402D01*
X00903D01*
X00918D01*
Y01422D01*
X00928Y01392D02*
X00933Y01387D01*
Y01377D01*
X00928Y01372D01*
X00908D01*
X00903Y01377D01*
Y01387D01*
X00908Y01392D01*
X00928D01*
X00903Y01532D02*
X00933D01*
Y01517D01*
X00928Y01512D01*
X00918D01*
X00913Y01517D01*
Y01532D01*
Y01522D02*
X00903Y01512D01*
X00928Y01482D02*
X00933Y01487D01*
Y01497D01*
X00928Y01502D01*
X00923D01*
X00918Y01497D01*
Y01487D01*
X00913Y01482D01*
X00908D01*
X00903Y01487D01*
Y01497D01*
X00908Y01502D01*
X00933Y01472D02*
Y01452D01*
Y01462D01*
X00903D01*
X00928Y01602D02*
X00933Y01607D01*
Y01617D01*
X00928Y01622D01*
X00908D01*
X00903Y01617D01*
Y01607D01*
X00908Y01602D01*
X00928Y01572D02*
X00933Y01577D01*
Y01587D01*
X00928Y01592D01*
X00923D01*
X00918Y01587D01*
Y01577D01*
X00913Y01572D01*
X00908D01*
X00903Y01577D01*
Y01587D01*
X00908Y01592D01*
X00928Y017075D02*
X00933Y017125D01*
Y017225D01*
X00928Y017275D01*
X00908D01*
X00903Y017225D01*
Y017125D01*
X00908Y017075D01*
X00918D01*
Y017175D01*
X00903Y016975D02*
X00933D01*
X00903Y016775D01*
X00933D01*
Y016675D02*
X00903D01*
Y016525D01*
X00908Y016475D01*
X00928D01*
X00933Y016525D01*
Y016675D01*
X00928Y01837D02*
X00933Y01832D01*
Y01822D01*
X00928Y01817D01*
X00923D01*
X00918Y01822D01*
Y01827D01*
Y01822D01*
X00913Y01817D01*
X00908D01*
X00903Y01822D01*
Y01832D01*
X00908Y01837D01*
X00903Y01807D02*
X00908D01*
Y01802D01*
X00903D01*
Y01807D01*
X00928Y01782D02*
X00933Y01777D01*
Y01767D01*
X00928Y01762D01*
X00923D01*
X00918Y01767D01*
Y01772D01*
Y01767D01*
X00913Y01762D01*
X00908D01*
X00903Y01767D01*
Y01777D01*
X00908Y01782D01*
X00938Y02392D02*
X00943Y02387D01*
Y02377D01*
X00938Y02372D01*
X00933D01*
X00928Y02377D01*
Y02382D01*
Y02377D01*
X00923Y02372D01*
X00918D01*
X00913Y02377D01*
Y02387D01*
X00918Y02392D01*
X00913Y02362D02*
X00918D01*
Y02357D01*
X00913D01*
Y02362D01*
X00938Y02337D02*
X00943Y02332D01*
Y02322D01*
X00938Y02317D01*
X00933D01*
X00928Y02322D01*
Y02327D01*
Y02322D01*
X00923Y02317D01*
X00918D01*
X00913Y02322D01*
Y02332D01*
X00918Y02337D01*
X00943Y02282D02*
X00913D01*
Y02267D01*
X00918Y02262D01*
X00938D01*
X00943Y02267D01*
Y02282D01*
Y02252D02*
Y02242D01*
Y02247D01*
X00913D01*
Y02252D01*
Y02242D01*
X00943Y02212D02*
Y02222D01*
X00938Y02227D01*
X00918D01*
X00913Y02222D01*
Y02212D01*
X00918Y02207D01*
X00938D01*
X00943Y02212D01*
X00938Y02157D02*
X00943Y02162D01*
Y02172D01*
X00938Y02177D01*
X00918D01*
X00913Y02172D01*
Y02162D01*
X00918Y02157D01*
X00943Y02147D02*
X00913D01*
Y02127D01*
X00943Y02117D02*
X00913D01*
X00923D01*
X00943Y02097D01*
X00928Y02112D01*
X00913Y02097D01*
X009625Y020415D02*
X009675Y020465D01*
Y020565D01*
X009625Y020615D01*
X009425D01*
X009375Y020565D01*
Y020465D01*
X009425Y020415D01*
X009525D01*
Y020515D01*
X01112Y02179D02*
Y02154D01*
X01117Y02149D01*
X01127D01*
X01132Y02154D01*
Y02179D01*
X01142Y02174D02*
X01147Y02179D01*
X01157D01*
X01162Y02174D01*
Y02169D01*
X01157Y02164D01*
X01152D01*
X01157D01*
X01162Y02159D01*
Y02154D01*
X01157Y02149D01*
X01147D01*
X01142Y02154D01*
X0132Y012D02*
X01315Y01195D01*
Y01185D01*
X0132Y0118D01*
X0134D01*
X01345Y01185D01*
Y01195D01*
X0134Y012D01*
X01345Y0123D02*
Y0121D01*
X01325Y0123D01*
X0132D01*
X01315Y01225D01*
Y01215D01*
X0132Y0121D01*
X01455Y0106D02*
X0148D01*
X01485Y01065D01*
Y01075D01*
X0148Y0108D01*
X01455D01*
X0146Y0109D02*
X01455Y01095D01*
Y01105D01*
X0146Y0111D01*
X01465D01*
X0147Y01105D01*
X01475Y0111D01*
X0148D01*
X01485Y01105D01*
Y01095D01*
X0148Y0109D01*
X01475D01*
X0147Y01095D01*
X01465Y0109D01*
X0146D01*
X0147Y01095D02*
Y01105D01*
X022Y01265D02*
Y0124D01*
X02205Y01235D01*
X02215D01*
X0222Y0124D01*
Y01265D01*
X0223D02*
X0225D01*
Y0126D01*
X0223Y0124D01*
Y01235D01*
X0263Y01735D02*
X02655D01*
X0266Y0174D01*
Y0175D01*
X02655Y01755D01*
X0263D01*
Y01785D02*
X02635Y01775D01*
X02645Y01765D01*
X02655D01*
X0266Y0177D01*
Y0178D01*
X02655Y01785D01*
X0265D01*
X02645Y0178D01*
Y01765D01*
X0279Y0156D02*
Y01535D01*
X02795Y0153D01*
X02805D01*
X0281Y01535D01*
Y0156D01*
X0284D02*
X0282D01*
Y01545D01*
X0283Y0155D01*
X02835D01*
X0284Y01545D01*
Y01535D01*
X02835Y0153D01*
X02825D01*
X0282Y01535D01*
X02695Y0202D02*
X0272D01*
X02725Y02025D01*
Y02035D01*
X0272Y0204D01*
X02695D01*
X02725Y02065D02*
X02695D01*
X0271Y0205D01*
Y0207D01*
X00965Y0125D02*
X0099D01*
X00995Y01255D01*
Y01265D01*
X0099Y0127D01*
X00965D01*
X00995Y013D02*
Y0128D01*
X00975Y013D01*
X0097D01*
X00965Y01295D01*
Y01285D01*
X0097Y0128D01*
X01995Y0224D02*
Y02215D01*
X02Y0221D01*
X0201D01*
X02015Y02215D01*
Y0224D01*
X02025Y0221D02*
X02035D01*
X0203D01*
Y0224D01*
X02025Y02235D01*
X0309Y0113D02*
X03085Y01125D01*
Y01115D01*
X0309Y0111D01*
X03095D01*
X031Y01115D01*
Y01125D01*
X03105Y0113D01*
X0311D01*
X03115Y01125D01*
Y01115D01*
X0311Y0111D01*
X03085Y0114D02*
X03115D01*
X03105Y0115D01*
X03115Y0116D01*
X03085D01*
X03115Y0117D02*
Y0118D01*
Y01175D01*
X03085D01*
X0309Y0117D01*
X0167Y0153D02*
Y0156D01*
X01685D01*
X0169Y01555D01*
Y01545D01*
X01685Y0154D01*
X0167D01*
X0168D02*
X0169Y0153D01*
X01715D02*
Y0156D01*
X017Y01545D01*
X0172D01*
X0173Y01555D02*
X01735Y0156D01*
X01745D01*
X0175Y01555D01*
Y01535D01*
X01745Y0153D01*
X01735D01*
X0173Y01535D01*
Y01555D01*
X01885Y01425D02*
Y01455D01*
X019D01*
X01905Y0145D01*
Y0144D01*
X019Y01435D01*
X01885D01*
X01895D02*
X01905Y01425D01*
X01915Y0145D02*
X0192Y01455D01*
X0193D01*
X01935Y0145D01*
Y01445D01*
X0193Y0144D01*
X01925D01*
X0193D01*
X01935Y01435D01*
Y0143D01*
X0193Y01425D01*
X0192D01*
X01915Y0143D01*
X01945D02*
X0195Y01425D01*
X0196D01*
X01965Y0143D01*
Y0145D01*
X0196Y01455D01*
X0195D01*
X01945Y0145D01*
Y01445D01*
X0195Y0144D01*
X01965D01*
X02745Y02305D02*
Y02335D01*
X0276D01*
X02765Y0233D01*
Y0232D01*
X0276Y02315D01*
X02745D01*
X02755D02*
X02765Y02305D01*
X02775Y0233D02*
X0278Y02335D01*
X0279D01*
X02795Y0233D01*
Y02325D01*
X0279Y0232D01*
X02785D01*
X0279D01*
X02795Y02315D01*
Y0231D01*
X0279Y02305D01*
X0278D01*
X02775Y0231D01*
X02805Y0233D02*
X0281Y02335D01*
X0282D01*
X02825Y0233D01*
Y02325D01*
X0282Y0232D01*
X02825Y02315D01*
Y0231D01*
X0282Y02305D01*
X0281D01*
X02805Y0231D01*
Y02315D01*
X0281Y0232D01*
X02805Y02325D01*
Y0233D01*
X0281Y0232D02*
X0282D01*
X0307Y0199D02*
X0304D01*
Y02005D01*
X03045Y0201D01*
X03055D01*
X0306Y02005D01*
Y0199D01*
Y02D02*
X0307Y0201D01*
X03045Y0202D02*
X0304Y02025D01*
Y02035D01*
X03045Y0204D01*
X0305D01*
X03055Y02035D01*
Y0203D01*
Y02035D01*
X0306Y0204D01*
X03065D01*
X0307Y02035D01*
Y02025D01*
X03065Y0202D01*
X0304Y0205D02*
Y0207D01*
X03045D01*
X03065Y0205D01*
X0307D01*
X02865Y02305D02*
Y02335D01*
X0288D01*
X02885Y0233D01*
Y0232D01*
X0288Y02315D01*
X02865D01*
X02875D02*
X02885Y02305D01*
X02895Y0233D02*
X029Y02335D01*
X0291D01*
X02915Y0233D01*
Y02325D01*
X0291Y0232D01*
X02905D01*
X0291D01*
X02915Y02315D01*
Y0231D01*
X0291Y02305D01*
X029D01*
X02895Y0231D01*
X02945Y02335D02*
X02935Y0233D01*
X02925Y0232D01*
Y0231D01*
X0293Y02305D01*
X0294D01*
X02945Y0231D01*
Y02315D01*
X0294Y0232D01*
X02925D01*
X02755Y01795D02*
Y01825D01*
X0277D01*
X02775Y0182D01*
Y0181D01*
X0277Y01805D01*
X02755D01*
X02765D02*
X02775Y01795D01*
X02785Y0182D02*
X0279Y01825D01*
X028D01*
X02805Y0182D01*
Y01815D01*
X028Y0181D01*
X02795D01*
X028D01*
X02805Y01805D01*
Y018D01*
X028Y01795D01*
X0279D01*
X02785Y018D01*
X02835Y01825D02*
X02815D01*
Y0181D01*
X02825Y01815D01*
X0283D01*
X02835Y0181D01*
Y018D01*
X0283Y01795D01*
X0282D01*
X02815Y018D01*
X027015Y015465D02*
X026715D01*
Y015615D01*
X026765Y015665D01*
X026865D01*
X026915Y015615D01*
Y015465D01*
Y015565D02*
X027015Y015665D01*
X026765Y015765D02*
X026715Y015815D01*
Y015915D01*
X026765Y015965D01*
X026815D01*
X026865Y015915D01*
Y015865D01*
Y015915D01*
X026915Y015965D01*
X026965D01*
X027015Y015915D01*
Y015815D01*
X026965Y015765D01*
X027015Y016214D02*
X026715D01*
X026865Y016064D01*
Y016264D01*
X0307Y015325D02*
X0304D01*
Y015475D01*
X03045Y015525D01*
X03055D01*
X0306Y015475D01*
Y015325D01*
Y015425D02*
X0307Y015525D01*
X03045Y015625D02*
X0304Y015675D01*
Y015775D01*
X03045Y015825D01*
X0305D01*
X03055Y015775D01*
Y015725D01*
Y015775D01*
X0306Y015825D01*
X03065D01*
X0307Y015775D01*
Y015675D01*
X03065Y015625D01*
X03045Y015925D02*
X0304Y015975D01*
Y016075D01*
X03045Y016125D01*
X0305D01*
X03055Y016075D01*
Y016025D01*
Y016075D01*
X0306Y016125D01*
X03065D01*
X0307Y016075D01*
Y015975D01*
X03065Y015925D01*
X02875Y01795D02*
Y01825D01*
X0289D01*
X02895Y0182D01*
Y0181D01*
X0289Y01805D01*
X02875D01*
X02885D02*
X02895Y01795D01*
X02905Y0182D02*
X0291Y01825D01*
X0292D01*
X02925Y0182D01*
Y01815D01*
X0292Y0181D01*
X02915D01*
X0292D01*
X02925Y01805D01*
Y018D01*
X0292Y01795D01*
X0291D01*
X02905Y018D01*
X02955Y01795D02*
X02935D01*
X02955Y01815D01*
Y0182D01*
X0295Y01825D01*
X0294D01*
X02935Y0182D01*
X03215Y01355D02*
X03185D01*
Y0137D01*
X0319Y01375D01*
X032D01*
X03205Y0137D01*
Y01355D01*
Y01365D02*
X03215Y01375D01*
X0319Y01385D02*
X03185Y0139D01*
Y014D01*
X0319Y01405D01*
X03195D01*
X032Y014D01*
Y01395D01*
Y014D01*
X03205Y01405D01*
X0321D01*
X03215Y014D01*
Y0139D01*
X0321Y01385D01*
X03215Y01415D02*
Y01425D01*
Y0142D01*
X03185D01*
X0319Y01415D01*
X02235Y0221D02*
X02205D01*
Y02225D01*
X0221Y0223D01*
X0222D01*
X02225Y02225D01*
Y0221D01*
Y0222D02*
X02235Y0223D01*
Y0226D02*
Y0224D01*
X02215Y0226D01*
X0221D01*
X02205Y02255D01*
Y02245D01*
X0221Y0224D01*
Y0227D02*
X02205Y02275D01*
Y02285D01*
X0221Y0229D01*
X02215D01*
X0222Y02285D01*
X02225Y0229D01*
X0223D01*
X02235Y02285D01*
Y02275D01*
X0223Y0227D01*
X02225D01*
X0222Y02275D01*
X02215Y0227D01*
X0221D01*
X0222Y02275D02*
Y02285D01*
X02865Y0129D02*
X02835D01*
Y01305D01*
X0284Y0131D01*
X0285D01*
X02855Y01305D01*
Y0129D01*
Y013D02*
X02865Y0131D01*
Y0134D02*
Y0132D01*
X02845Y0134D01*
X0284D01*
X02835Y01335D01*
Y01325D01*
X0284Y0132D01*
X02835Y0135D02*
Y0137D01*
X0284D01*
X0286Y0135D01*
X02865D01*
X0237Y02115D02*
Y02145D01*
X02385D01*
X0239Y0214D01*
Y0213D01*
X02385Y02125D01*
X0237D01*
X0238D02*
X0239Y02115D01*
X0242D02*
X024D01*
X0242Y02135D01*
Y0214D01*
X02415Y02145D01*
X02405D01*
X024Y0214D01*
X0245Y02145D02*
X0243D01*
Y0213D01*
X0244Y02135D01*
X02445D01*
X0245Y0213D01*
Y0212D01*
X02445Y02115D01*
X02435D01*
X0243Y0212D01*
X020668Y015819D02*
X020368D01*
Y015969D01*
X020418Y016019D01*
X020518D01*
X020568Y015969D01*
Y015819D01*
Y015919D02*
X020668Y016019D01*
Y016319D02*
Y016119D01*
X020468Y016319D01*
X020418D01*
X020368Y016269D01*
Y016169D01*
X020418Y016119D01*
X020668Y016569D02*
X020368D01*
X020518Y016419D01*
Y016619D01*
X02375Y02045D02*
Y02075D01*
X0239D01*
X02395Y0207D01*
Y0206D01*
X0239Y02055D01*
X02375D01*
X02385D02*
X02395Y02045D01*
X02425D02*
X02405D01*
X02425Y02065D01*
Y0207D01*
X0242Y02075D01*
X0241D01*
X02405Y0207D01*
X02435D02*
X0244Y02075D01*
X0245D01*
X02455Y0207D01*
Y02065D01*
X0245Y0206D01*
X02445D01*
X0245D01*
X02455Y02055D01*
Y0205D01*
X0245Y02045D01*
X0244D01*
X02435Y0205D01*
X0226Y01995D02*
Y02025D01*
X02275D01*
X0228Y0202D01*
Y0201D01*
X02275Y02005D01*
X0226D01*
X0227D02*
X0228Y01995D01*
X0231D02*
X0229D01*
X0231Y02015D01*
Y0202D01*
X02305Y02025D01*
X02295D01*
X0229Y0202D01*
X0234Y01995D02*
X0232D01*
X0234Y02015D01*
Y0202D01*
X02335Y02025D01*
X02325D01*
X0232Y0202D01*
X0224Y0165D02*
X0221D01*
Y01665D01*
X02215Y0167D01*
X02225D01*
X0223Y01665D01*
Y0165D01*
Y0166D02*
X0224Y0167D01*
Y017D02*
Y0168D01*
X0222Y017D01*
X02215D01*
X0221Y01695D01*
Y01685D01*
X02215Y0168D01*
X0224Y0171D02*
Y0172D01*
Y01715D01*
X0221D01*
X02215Y0171D01*
X0229Y016875D02*
X0226D01*
Y017025D01*
X02265Y017075D01*
X02275D01*
X0228Y017025D01*
Y016875D01*
Y016975D02*
X0229Y017075D01*
Y017175D02*
Y017275D01*
Y017225D01*
X0226D01*
X02265Y017175D01*
X02285Y017425D02*
X0229Y017475D01*
Y017575D01*
X02285Y017625D01*
X02265D01*
X0226Y017575D01*
Y017475D01*
X02265Y017425D01*
X0227D01*
X02275Y017475D01*
Y017625D01*
X021339Y015844D02*
X021039D01*
Y015994D01*
X021089Y016044D01*
X021189D01*
X021239Y015994D01*
Y015844D01*
Y015944D02*
X021339Y016044D01*
Y016144D02*
Y016244D01*
Y016194D01*
X021039D01*
X021089Y016144D01*
Y016394D02*
X021039Y016444D01*
Y016544D01*
X021089Y016594D01*
X021139D01*
X021189Y016544D01*
X021239Y016594D01*
X021289D01*
X021339Y016544D01*
Y016444D01*
X021289Y016394D01*
X021239D01*
X021189Y016444D01*
X021139Y016394D01*
X021089D01*
X021189Y016444D02*
Y016544D01*
X01295Y010325D02*
X01265D01*
Y010475D01*
X0127Y010525D01*
X0128D01*
X01285Y010475D01*
Y010325D01*
Y010425D02*
X01295Y010525D01*
Y010625D02*
Y010725D01*
Y010675D01*
X01265D01*
X0127Y010625D01*
X01265Y010875D02*
Y011075D01*
X0127D01*
X0129Y010875D01*
X01295D01*
X024Y018575D02*
X0237D01*
Y018725D01*
X02375Y018775D01*
X02385D01*
X0239Y018725D01*
Y018575D01*
Y018675D02*
X024Y018775D01*
Y018875D02*
Y018975D01*
Y018925D01*
X0237D01*
X02375Y018875D01*
X0237Y019325D02*
X02375Y019225D01*
X02385Y019125D01*
X02395D01*
X024Y019175D01*
Y019275D01*
X02395Y019325D01*
X0239D01*
X02385Y019275D01*
Y019125D01*
X022525Y0191D02*
Y0194D01*
X022675D01*
X022725Y01935D01*
Y01925D01*
X022675Y0192D01*
X022525D01*
X022625D02*
X022725Y0191D01*
X022825D02*
X022925D01*
X022875D01*
Y0194D01*
X022825Y01935D01*
X023275Y0194D02*
X023075D01*
Y01925D01*
X023175Y0193D01*
X023225D01*
X023275Y01925D01*
Y01915D01*
X023225Y0191D01*
X023125D01*
X023075Y01915D01*
X0182Y016525D02*
X0179D01*
Y016675D01*
X01795Y016725D01*
X01805D01*
X0181Y016675D01*
Y016525D01*
Y016625D02*
X0182Y016725D01*
Y016825D02*
Y016925D01*
Y016875D01*
X0179D01*
X01795Y016825D01*
X0182Y017225D02*
X0179D01*
X01805Y017075D01*
Y017275D01*
X016875Y01745D02*
Y01775D01*
X017025D01*
X017075Y0177D01*
Y0176D01*
X017025Y01755D01*
X016875D01*
X016975D02*
X017075Y01745D01*
X017175D02*
X017275D01*
X017225D01*
Y01775D01*
X017175Y0177D01*
X017625Y01745D02*
X017425D01*
X017625Y01765D01*
Y0177D01*
X017575Y01775D01*
X017475D01*
X017425Y0177D01*
X019326Y015894D02*
X019026D01*
Y016044D01*
X019076Y016094D01*
X019176D01*
X019226Y016044D01*
Y015894D01*
Y015994D02*
X019326Y016094D01*
Y016194D02*
Y016294D01*
Y016244D01*
X019026D01*
X019076Y016194D01*
X019326Y016444D02*
Y016544D01*
Y016494D01*
X019026D01*
X019076Y016444D01*
X015925Y0189D02*
Y0192D01*
X016075D01*
X016125Y01915D01*
Y01905D01*
X016075Y019D01*
X015925D01*
X016025D02*
X016125Y0189D01*
X016225D02*
X016325D01*
X016275D01*
Y0192D01*
X016225Y01915D01*
X016475D02*
X016525Y0192D01*
X016625D01*
X016675Y01915D01*
Y01895D01*
X016625Y0189D01*
X016525D01*
X016475Y01895D01*
Y01915D01*
X0187Y0181D02*
X0184D01*
Y01825D01*
X01845Y0183D01*
X01855D01*
X0186Y01825D01*
Y0181D01*
Y0182D02*
X0187Y0183D01*
X01865Y0184D02*
X0187Y01845D01*
Y01855D01*
X01865Y0186D01*
X01845D01*
X0184Y01855D01*
Y01845D01*
X01845Y0184D01*
X0185D01*
X01855Y01845D01*
Y0186D01*
X01791Y02227D02*
Y02257D01*
X01806D01*
X01811Y02252D01*
Y02242D01*
X01806Y02237D01*
X01791D01*
X01801D02*
X01811Y02227D01*
X01821Y02252D02*
X01826Y02257D01*
X01836D01*
X01841Y02252D01*
Y02247D01*
X01836Y02242D01*
X01841Y02237D01*
Y02232D01*
X01836Y02227D01*
X01826D01*
X01821Y02232D01*
Y02237D01*
X01826Y02242D01*
X01821Y02247D01*
Y02252D01*
X01826Y02242D02*
X01836D01*
X0161Y021123D02*
Y021423D01*
X01625D01*
X0163Y021373D01*
Y021273D01*
X01625Y021223D01*
X0161D01*
X0162D02*
X0163Y021123D01*
X0166Y021423D02*
X0165Y021373D01*
X0164Y021273D01*
Y021173D01*
X01645Y021123D01*
X01655D01*
X0166Y021173D01*
Y021223D01*
X01655Y021273D01*
X0164D01*
X019947Y016056D02*
X019647D01*
Y016206D01*
X019697Y016256D01*
X019797D01*
X019847Y016206D01*
Y016056D01*
Y016156D02*
X019947Y016256D01*
X019647Y016556D02*
Y016356D01*
X019797D01*
X019747Y016456D01*
Y016506D01*
X019797Y016556D01*
X019897D01*
X019947Y016506D01*
Y016406D01*
X019897Y016356D01*
X01555Y0204D02*
Y0207D01*
X0157D01*
X01575Y02065D01*
Y02055D01*
X0157Y0205D01*
X01555D01*
X01565D02*
X01575Y0204D01*
X016D02*
Y0207D01*
X01585Y02055D01*
X01605D01*
X01791Y02117D02*
Y02147D01*
X01806D01*
X01811Y02142D01*
Y02132D01*
X01806Y02127D01*
X01791D01*
X01801D02*
X01811Y02117D01*
X01821Y02142D02*
X01826Y02147D01*
X01836D01*
X01841Y02142D01*
Y02137D01*
X01836Y02132D01*
X01831D01*
X01836D01*
X01841Y02127D01*
Y02122D01*
X01836Y02117D01*
X01826D01*
X01821Y02122D01*
X00955Y0144D02*
Y0147D01*
X0097D01*
X00975Y01465D01*
Y01455D01*
X0097Y0145D01*
X00955D01*
X00965D02*
X00975Y0144D01*
X01005D02*
X00985D01*
X01005Y0146D01*
Y01465D01*
X01Y0147D01*
X0099D01*
X00985Y01465D01*
X00955Y01395D02*
Y01425D01*
X0097D01*
X00975Y0142D01*
Y0141D01*
X0097Y01405D01*
X00955D01*
X00965D02*
X00975Y01395D01*
X00985D02*
X00995D01*
X0099D01*
Y01425D01*
X00985Y0142D01*
X021Y00525D02*
X0209D01*
X02095D01*
Y005D01*
X0209Y00495D01*
X02085D01*
X0208Y005D01*
X0213Y00495D02*
X0211D01*
X0213Y00515D01*
Y0052D01*
X02125Y00525D01*
X02115D01*
X0211Y0052D01*
X02786Y00342D02*
X02766D01*
Y00327D01*
X02776D01*
X02766D01*
Y00312D01*
X02796D02*
X02806D01*
X02801D01*
Y00342D01*
X02796Y00337D01*
X0167Y01625D02*
Y01595D01*
X01685D01*
X0169Y016D01*
Y0162D01*
X01685Y01625D01*
X0167D01*
X01715Y01595D02*
Y01625D01*
X017Y0161D01*
X0172D01*
X027Y0136D02*
X0273D01*
Y01375D01*
X02725Y0138D01*
X02705D01*
X027Y01375D01*
Y0136D01*
X02705Y0139D02*
X027Y01395D01*
Y01405D01*
X02705Y0141D01*
X0271D01*
X02715Y01405D01*
Y014D01*
Y01405D01*
X0272Y0141D01*
X02725D01*
X0273Y01405D01*
Y01395D01*
X02725Y0139D01*
X02885Y00465D02*
Y00435D01*
X029D01*
X02905Y0044D01*
Y0046D01*
X029Y00465D01*
X02885D01*
X02935Y00435D02*
X02915D01*
X02935Y00455D01*
Y0046D01*
X0293Y00465D01*
X0292D01*
X02915Y0046D01*
X017616Y013447D02*
Y013147D01*
X017766D01*
X017816Y013197D01*
Y013397D01*
X017766Y013447D01*
X017616D01*
X017916Y013147D02*
X018016D01*
X017966D01*
Y013447D01*
X017916Y013397D01*
X01465Y01325D02*
X0146Y0133D01*
X0145D01*
X01445Y01325D01*
Y01305D01*
X0145Y013D01*
X0146D01*
X01465Y01305D01*
X01495Y013D02*
X01475D01*
X01495Y0132D01*
Y01325D01*
X0149Y0133D01*
X0148D01*
X01475Y01325D01*
X01505Y0133D02*
X01525D01*
Y01325D01*
X01505Y01305D01*
Y013D01*
X01805Y0112D02*
X018Y01115D01*
Y01105D01*
X01805Y011D01*
X01825D01*
X0183Y01105D01*
Y01115D01*
X01825Y0112D01*
X0183Y0115D02*
Y0113D01*
X0181Y0115D01*
X01805D01*
X018Y01145D01*
Y01135D01*
X01805Y0113D01*
X018Y0118D02*
X01805Y0117D01*
X01815Y0116D01*
X01825D01*
X0183Y01165D01*
Y01175D01*
X01825Y0118D01*
X0182D01*
X01815Y01175D01*
Y0116D01*
X0187Y0112D02*
X01865Y01115D01*
Y01105D01*
X0187Y011D01*
X0189D01*
X01895Y01105D01*
Y01115D01*
X0189Y0112D01*
X01895Y0115D02*
Y0113D01*
X01875Y0115D01*
X0187D01*
X01865Y01145D01*
Y01135D01*
X0187Y0113D01*
X01865Y0118D02*
Y0116D01*
X0188D01*
X01875Y0117D01*
Y01175D01*
X0188Y0118D01*
X0189D01*
X01895Y01175D01*
Y01165D01*
X0189Y0116D01*
X02715Y0107D02*
X0271Y01075D01*
X027D01*
X02695Y0107D01*
Y0105D01*
X027Y01045D01*
X0271D01*
X02715Y0105D01*
X02745Y01045D02*
X02725D01*
X02745Y01065D01*
Y0107D01*
X0274Y01075D01*
X0273D01*
X02725Y0107D01*
X0277Y01045D02*
Y01075D01*
X02755Y0106D01*
X02775D01*
X0217Y01425D02*
X02165Y0142D01*
Y0141D01*
X0217Y01405D01*
X0219D01*
X02195Y0141D01*
Y0142D01*
X0219Y01425D01*
X02195Y01455D02*
Y01435D01*
X02175Y01455D01*
X0217D01*
X02165Y0145D01*
Y0144D01*
X0217Y01435D01*
Y01465D02*
X02165Y0147D01*
Y0148D01*
X0217Y01485D01*
X02175D01*
X0218Y0148D01*
Y01475D01*
Y0148D01*
X02185Y01485D01*
X0219D01*
X02195Y0148D01*
Y0147D01*
X0219Y01465D01*
X03225Y021D02*
X0322Y02105D01*
X0321D01*
X03205Y021D01*
Y0208D01*
X0321Y02075D01*
X0322D01*
X03225Y0208D01*
X03255Y02075D02*
X03235D01*
X03255Y02095D01*
Y021D01*
X0325Y02105D01*
X0324D01*
X03235Y021D01*
X03285Y02075D02*
X03265D01*
X03285Y02095D01*
Y021D01*
X0328Y02105D01*
X0327D01*
X03265Y021D01*
X0263Y02065D02*
X02625Y0206D01*
Y0205D01*
X0263Y02045D01*
X0265D01*
X02655Y0205D01*
Y0206D01*
X0265Y02065D01*
X02655Y02095D02*
Y02075D01*
X02635Y02095D01*
X0263D01*
X02625Y0209D01*
Y0208D01*
X0263Y02075D01*
Y02105D02*
X02625Y0211D01*
Y0212D01*
X0263Y02125D01*
X0265D01*
X02655Y0212D01*
Y0211D01*
X0265Y02105D01*
X0263D01*
X032275Y01495D02*
X032225Y015D01*
X032125D01*
X032075Y01495D01*
Y01475D01*
X032125Y0147D01*
X032225D01*
X032275Y01475D01*
X032375Y0147D02*
X032475D01*
X032425D01*
Y015D01*
X032375Y01495D01*
X032625Y01475D02*
X032675Y0147D01*
X032775D01*
X032825Y01475D01*
Y01495D01*
X032775Y015D01*
X032675D01*
X032625Y01495D01*
Y0149D01*
X032675Y01485D01*
X032825D01*
X02315Y017075D02*
X0231Y017025D01*
Y016925D01*
X02315Y016875D01*
X02335D01*
X0234Y016925D01*
Y017025D01*
X02335Y017075D01*
X0234Y017175D02*
Y017275D01*
Y017225D01*
X0231D01*
X02315Y017175D01*
X0231Y017425D02*
Y017625D01*
X02315D01*
X02335Y017425D01*
X0234D01*
X0293Y015525D02*
X02925Y015475D01*
Y015375D01*
X0293Y015325D01*
X0295D01*
X02955Y015375D01*
Y015475D01*
X0295Y015525D01*
X02955Y015625D02*
Y015725D01*
Y015675D01*
X02925D01*
X0293Y015625D01*
X02925Y016075D02*
X0293Y015975D01*
X0294Y015875D01*
X0295D01*
X02955Y015925D01*
Y016025D01*
X0295Y016075D01*
X02945D01*
X0294Y016025D01*
Y015875D01*
X0319Y012575D02*
X03185Y012525D01*
Y012425D01*
X0319Y012375D01*
X0321D01*
X03215Y012425D01*
Y012525D01*
X0321Y012575D01*
X03215Y012675D02*
Y012775D01*
Y012725D01*
X03185D01*
X0319Y012675D01*
X03185Y013125D02*
Y012925D01*
X032D01*
X03195Y013025D01*
Y013075D01*
X032Y013125D01*
X0321D01*
X03215Y013075D01*
Y012975D01*
X0321Y012925D01*
X01265Y022925D02*
X0126Y022875D01*
Y022775D01*
X01265Y022725D01*
X01285D01*
X0129Y022775D01*
Y022875D01*
X01285Y022925D01*
X0129Y023025D02*
Y023125D01*
Y023075D01*
X0126D01*
X01265Y023025D01*
Y023275D02*
X0126Y023325D01*
Y023425D01*
X01265Y023475D01*
X0127D01*
X01275Y023425D01*
Y023375D01*
Y023425D01*
X0128Y023475D01*
X01285D01*
X0129Y023425D01*
Y023325D01*
X01285Y023275D01*
X0132Y022925D02*
X01315Y022875D01*
Y022775D01*
X0132Y022725D01*
X0134D01*
X01345Y022775D01*
Y022875D01*
X0134Y022925D01*
X01345Y023025D02*
Y023125D01*
Y023075D01*
X01315D01*
X0132Y023025D01*
X01345Y023475D02*
Y023275D01*
X01325Y023475D01*
X0132D01*
X01315Y023425D01*
Y023325D01*
X0132Y023275D01*
X01575Y021975D02*
X0157Y021925D01*
Y021825D01*
X01575Y021775D01*
X01595D01*
X016Y021825D01*
Y021925D01*
X01595Y021975D01*
X016Y022075D02*
Y022175D01*
Y022125D01*
X0157D01*
X01575Y022075D01*
X016Y022325D02*
Y022425D01*
Y022375D01*
X0157D01*
X01575Y022325D01*
X01455Y016575D02*
X0145Y016525D01*
Y016425D01*
X01455Y016375D01*
X01475D01*
X0148Y016425D01*
Y016525D01*
X01475Y016575D01*
X0148Y016675D02*
Y016775D01*
Y016725D01*
X0145D01*
X01455Y016675D01*
Y016925D02*
X0145Y016975D01*
Y017075D01*
X01455Y017125D01*
X01475D01*
X0148Y017075D01*
Y016975D01*
X01475Y016925D01*
X01455D01*
X01515Y0166D02*
X0151Y01655D01*
Y01645D01*
X01515Y0164D01*
X01535D01*
X0154Y01645D01*
Y01655D01*
X01535Y0166D01*
Y0167D02*
X0154Y01675D01*
Y01685D01*
X01535Y0169D01*
X01515D01*
X0151Y01685D01*
Y01675D01*
X01515Y0167D01*
X0152D01*
X01525Y01675D01*
Y0169D01*
X0134Y0132D02*
X01335Y01315D01*
Y01305D01*
X0134Y013D01*
X0136D01*
X01365Y01305D01*
Y01315D01*
X0136Y0132D01*
X0134Y0133D02*
X01335Y01335D01*
Y01345D01*
X0134Y0135D01*
X01345D01*
X0135Y01345D01*
X01355Y0135D01*
X0136D01*
X01365Y01345D01*
Y01335D01*
X0136Y0133D01*
X01355D01*
X0135Y01335D01*
X01345Y0133D01*
X0134D01*
X0135Y01335D02*
Y01345D01*
X01255Y0132D02*
X0125Y01315D01*
Y01305D01*
X01255Y013D01*
X01275D01*
X0128Y01305D01*
Y01315D01*
X01275Y0132D01*
X0125Y0133D02*
Y0135D01*
X01255D01*
X01275Y0133D01*
X0128D01*
X0102Y0171D02*
X01015Y01715D01*
X01005D01*
X01Y0171D01*
Y0169D01*
X01005Y01685D01*
X01015D01*
X0102Y0169D01*
X0105Y01715D02*
X0104Y0171D01*
X0103Y017D01*
Y0169D01*
X01035Y01685D01*
X01045D01*
X0105Y0169D01*
Y01695D01*
X01045Y017D01*
X0103D01*
X0102Y0176D02*
X01015Y01765D01*
X01005D01*
X01Y0176D01*
Y0174D01*
X01005Y01735D01*
X01015D01*
X0102Y0174D01*
X0105Y01765D02*
X0103D01*
Y0175D01*
X0104Y01755D01*
X01045D01*
X0105Y0175D01*
Y0174D01*
X01045Y01735D01*
X01035D01*
X0103Y0174D01*
X0102Y0181D02*
X01015Y01815D01*
X01005D01*
X01Y0181D01*
Y0179D01*
X01005Y01785D01*
X01015D01*
X0102Y0179D01*
X01045Y01785D02*
Y01815D01*
X0103Y018D01*
X0105D01*
X0161Y01975D02*
X01605Y0198D01*
X01595D01*
X0159Y01975D01*
Y01955D01*
X01595Y0195D01*
X01605D01*
X0161Y01955D01*
X0162Y0195D02*
X0163D01*
X01625D01*
Y0198D01*
X0162Y01975D01*
D18*
X020386Y01477D02*
X020797D01*
X020591Y014564D02*
Y014975D01*
X033124Y007764D02*
Y007353D01*
X032918Y007559D02*
X03333D01*
M02*
