G04*
G04 #@! TF.GenerationSoftware,Altium Limited,Altium Designer,21.9.2 (33)*
G04*
G04 Layer_Color=8388736*
%FSTAX24Y24*%
%MOIN*%
G70*
G04*
G04 #@! TF.SameCoordinates,C045CB64-A717-4E46-AD80-C8F196844A4B*
G04*
G04*
G04 #@! TF.FilePolarity,Positive*
G04*
G01*
G75*
%ADD13C,0.0039*%
D13*
X03086Y003049D02*
Y004151D01*
X030997Y003049D02*
Y004151D01*
X030978Y003049D02*
Y004151D01*
X030948Y003049D02*
Y004151D01*
X030919Y003049D02*
Y004151D01*
X030889Y003049D02*
Y004151D01*
X03083Y003049D02*
Y004151D01*
X0308Y003049D02*
Y004151D01*
X030771Y003049D02*
Y004151D01*
X030741Y003049D02*
Y004151D01*
X028867D02*
X031033D01*
X028867Y003049D02*
X031033D01*
X028867D02*
Y004151D01*
X031033Y003049D02*
Y004151D01*
X025683Y014664D02*
X026786D01*
X025683Y014802D02*
X026786D01*
X025683Y014782D02*
X026786D01*
X025683Y014753D02*
X026786D01*
X025683Y014723D02*
X026786D01*
X025683Y014694D02*
X026786D01*
X025683Y014635D02*
X026786D01*
X025683Y014605D02*
X026786D01*
X025683Y014575D02*
X026786D01*
X025683Y014546D02*
X026786D01*
X025683Y012672D02*
Y014837D01*
X026786Y012672D02*
Y014837D01*
X025683Y012672D02*
X026786D01*
X025683Y014837D02*
X026786D01*
M02*
