M48
;Layer_Color=9474304
;FILE_FORMAT=2:4
INCH,LZ
;TYPE=PLATED
T1F00S00C0.0039
T2F00S00C0.0157
T3F00S00C0.0360
T4F00S00C0.0420
T5F00S00C0.0472
T7F00S00C0.1181
%
T01
X014653Y011614
Y011811
X01485
Y011614
X015047
Y011811
X015244
Y011614
Y012008
Y012204
X015047
Y012008
X01485
Y012204
X014653
Y012008
T02
X00916Y004787
X009751
X010341
X010932
X011522
X012113
X012703
X013294
Y005378
X012703
X012113
X011522
X010932
X010341
X009751
X00916
Y005968
X009751
X010341
X010932
X011522
X012113
X012703
X013294
X013884
Y005378
X014475
X015065
Y005968
X014475
Y006559
X013884
X013294
X012703
X012113
X011522
X010932
X010341
X009751
X00916
Y007149
Y00774
X009751
X010341
X010932
X011522
X012113
X012703
X013294
X013884
X014475
X015065
Y007149
Y006559
X014475Y007149
X013884
X013294
X012703
X012113
X011522
X010932
X010341
X009751
X01004Y008339
X009449
Y008929
Y00952
X01004
Y008929
X012609
Y00952
X0132
Y008929
Y008339
X012609
X01335Y01125
X01305Y0136
X01195Y0129
X01145
X01095
X0098Y011702
X014967Y01505
X01915Y01555
X01942Y00952
X018829
Y008929
Y008339
X01942
Y008929
X019199Y00774
X018609
X018018
X017428
X016837
X016247
X015656
Y007149
Y006559
Y005968
Y005378
X016247
X016837
X017428
X018018
X018609
X019199
X01979
X02038
X020971
Y005968
X02038
X01979
X019199
X018609
X018018
X017428
X016837
X016247
Y006559
X016837
X017428
X018018
X018609
X019199
X01979
X02038
X020971
Y007149
Y00774
X02038
X01979
Y007149
X019199
X018609
X018018
X017428
X016837
X016247
X01631Y008339
X015719
Y008929
Y00952
X01631
Y008929
X02038Y007149
X0194Y00115
X01705Y0011
X0276Y01155
X02865
X0291Y0122
X0302Y01505
X030151Y017074
X0271Y0187
X0254Y01905
X0247
X0234Y0197
X022197Y019673
X02115Y0169
X020468Y016918
X0198Y016883
X01915Y01715
X016619Y017482
X016397Y017993
X01615Y01865
X0157Y01895
X01595Y01935
Y0198
Y02025
X01565Y0207
X0165Y0206
X01695Y01925
X0174Y01915
X01809Y01954
X0187Y0226
X01635
X0158Y0176
X0159Y0161
X0167Y0166
X0237Y01575
X02645Y0217
X012797Y021647
X01235Y022
X01325Y02245
X0112Y02165
X01025Y0208
X009984Y019316
X0105Y01885
Y0184
X0104Y01635
X01015Y015632
X0098Y01595
X01395Y0198
T03
X01648Y0241
X01766Y0241
X01867
X01965
X02066
X0219
X0229
X0239
X0249
X0259
X031102Y023715
Y022705
Y021725
Y019015
Y018005
Y017025
X0155Y0241
X01449
X008429Y0235
Y02249
Y02151
Y0205
T04
X008239Y0109
Y0119
Y0129
Y0139
Y0149
Y0159
Y0169
Y0179
T05
X008805Y0254
X009805
X010805
X011805
X012805
T07
X00835Y00165
X03245
X0327Y02525
X0103Y0234
M30
