G04*
G04 #@! TF.GenerationSoftware,Altium Limited,Altium Designer,21.9.2 (33)*
G04*
G04 Layer_Color=255*
%FSTAX24Y24*%
%MOIN*%
G70*
G04*
G04 #@! TF.SameCoordinates,C045CB64-A717-4E46-AD80-C8F196844A4B*
G04*
G04*
G04 #@! TF.FilePolarity,Positive*
G04*
G01*
G75*
%ADD22R,0.0315X0.0315*%
%ADD23R,0.0354X0.0217*%
%ADD25R,0.0315X0.0315*%
%ADD91O,0.0900X0.0650*%
%ADD92R,0.0900X0.0650*%
%ADD93O,0.0750X0.0650*%
%ADD94C,0.0079*%
%ADD95C,0.1380*%
%ADD96R,0.0748X0.0748*%
%ADD97C,0.0748*%
%ADD98R,0.0750X0.0650*%
%ADD99O,0.0650X0.0900*%
%ADD100R,0.0650X0.0900*%
%ADD101O,0.0650X0.0750*%
%ADD102R,0.0650X0.0750*%
%ADD103O,0.1181X0.2559*%
%ADD104O,0.2559X0.1181*%
D22*
X00915Y017305D02*
D03*
Y017895D02*
D03*
X00945Y021905D02*
D03*
Y022495D02*
D03*
D23*
X019126Y016011D02*
D03*
Y016601D02*
D03*
X019797Y016011D02*
D03*
Y016601D02*
D03*
X020468Y016011D02*
D03*
Y016601D02*
D03*
X021139Y016011D02*
D03*
Y016601D02*
D03*
D25*
X032595Y01885D02*
D03*
X032005D02*
D03*
X032595Y0237D02*
D03*
X032005D02*
D03*
D91*
X008239Y0179D02*
D03*
Y0159D02*
D03*
Y0139D02*
D03*
Y0129D02*
D03*
Y0119D02*
D03*
Y0149D02*
D03*
Y0169D02*
D03*
D92*
Y0109D02*
D03*
D93*
X008429Y0205D02*
D03*
Y02151D02*
D03*
Y02249D02*
D03*
Y0235D02*
D03*
X031102Y017025D02*
D03*
Y018005D02*
D03*
Y021725D02*
D03*
Y022705D02*
D03*
D94*
X015244Y012204D02*
D03*
X015047D02*
D03*
X01485D02*
D03*
X014653D02*
D03*
X015047D02*
D03*
X01485D02*
D03*
X014653D02*
D03*
X015244Y012008D02*
D03*
X015047D02*
D03*
X01485D02*
D03*
X014653D02*
D03*
X015244Y011811D02*
D03*
X015047D02*
D03*
X01485D02*
D03*
X014653D02*
D03*
X015244Y011614D02*
D03*
X015047D02*
D03*
X01485D02*
D03*
X014653D02*
D03*
D95*
X0103Y0234D02*
D03*
X0327Y02525D02*
D03*
X03245Y00165D02*
D03*
X00835D02*
D03*
D96*
X012805Y0254D02*
D03*
D97*
X011805D02*
D03*
X010805D02*
D03*
X009805D02*
D03*
X008805D02*
D03*
D98*
X031102Y019015D02*
D03*
Y023715D02*
D03*
D99*
X0249Y0241D02*
D03*
X0239D02*
D03*
X0229D02*
D03*
X0259D02*
D03*
D100*
X0219D02*
D03*
D101*
X02066D02*
D03*
X01965D02*
D03*
X01867D02*
D03*
X01766D02*
D03*
X01648Y0241D02*
D03*
X0155D02*
D03*
D102*
X01449D02*
D03*
D103*
X015035Y002906D02*
D03*
X02175Y00305D02*
D03*
D104*
X0122Y0033D02*
D03*
X024112Y002735D02*
D03*
M02*
