G04*
G04 #@! TF.GenerationSoftware,Altium Limited,Altium Designer,21.9.2 (33)*
G04*
G04 Layer_Color=8388736*
%FSTAX24Y24*%
%MOIN*%
G70*
G04*
G04 #@! TF.SameCoordinates,C045CB64-A717-4E46-AD80-C8F196844A4B*
G04*
G04*
G04 #@! TF.FilePolarity,Positive*
G04*
G01*
G75*
%ADD107C,0.0059*%
D107*
X020403Y012261D02*
X020305Y012163D01*
Y011966D01*
X020403Y011867D01*
X020797D01*
X020895Y011966D01*
Y012163D01*
X020797Y012261D01*
X020895Y012851D02*
Y012458D01*
X020502Y012851D01*
X020403D01*
X020305Y012753D01*
Y012556D01*
X020403Y012458D01*
Y013048D02*
X020305Y013146D01*
Y013343D01*
X020403Y013442D01*
X020502D01*
X0206Y013343D01*
Y013245D01*
Y013343D01*
X020698Y013442D01*
X020797D01*
X020895Y013343D01*
Y013146D01*
X020797Y013048D01*
X029277Y007747D02*
X029178Y007845D01*
X028981D01*
X028883Y007747D01*
Y007353D01*
X028981Y007255D01*
X029178D01*
X029277Y007353D01*
X029867Y007255D02*
X029473D01*
X029867Y007648D01*
Y007747D01*
X029769Y007845D01*
X029572D01*
X029473Y007747D01*
X030359Y007255D02*
Y007845D01*
X030064Y00755D01*
X030457D01*
M02*
