G04*
G04 #@! TF.GenerationSoftware,Altium Limited,Altium Designer,21.9.2 (33)*
G04*
G04 Layer_Color=255*
%FSTAX24Y24*%
%MOIN*%
G70*
G04*
G04 #@! TF.SameCoordinates,C045CB64-A717-4E46-AD80-C8F196844A4B*
G04*
G04*
G04 #@! TF.FilePolarity,Positive*
G04*
G01*
G75*
%ADD19R,0.0374X0.1004*%
%ADD20R,0.2205X0.2835*%
%ADD21R,0.0531X0.1339*%
%ADD22R,0.0315X0.0315*%
%ADD23R,0.0354X0.0217*%
%ADD24R,0.0217X0.0354*%
%ADD25R,0.0315X0.0315*%
G04:AMPARAMS|DCode=26|XSize=77.6mil|YSize=23.6mil|CornerRadius=3mil|HoleSize=0mil|Usage=FLASHONLY|Rotation=90.000|XOffset=0mil|YOffset=0mil|HoleType=Round|Shape=RoundedRectangle|*
%AMROUNDEDRECTD26*
21,1,0.0776,0.0177,0,0,90.0*
21,1,0.0717,0.0236,0,0,90.0*
1,1,0.0059,0.0089,0.0358*
1,1,0.0059,0.0089,-0.0358*
1,1,0.0059,-0.0089,-0.0358*
1,1,0.0059,-0.0089,0.0358*
%
%ADD26ROUNDEDRECTD26*%
%ADD27R,0.0846X0.1280*%
%ADD28R,0.0846X0.0394*%
G04:AMPARAMS|DCode=29|XSize=88.2mil|YSize=91.3mil|CornerRadius=11mil|HoleSize=0mil|Usage=FLASHONLY|Rotation=0.000|XOffset=0mil|YOffset=0mil|HoleType=Round|Shape=RoundedRectangle|*
%AMROUNDEDRECTD29*
21,1,0.0882,0.0693,0,0,0.0*
21,1,0.0661,0.0913,0,0,0.0*
1,1,0.0220,0.0331,-0.0346*
1,1,0.0220,-0.0331,-0.0346*
1,1,0.0220,-0.0331,0.0346*
1,1,0.0220,0.0331,0.0346*
%
%ADD29ROUNDEDRECTD29*%
%ADD30R,0.0630X0.1378*%
%ADD31R,0.0276X0.0315*%
G04:AMPARAMS|DCode=32|XSize=47.2mil|YSize=71.7mil|CornerRadius=5.9mil|HoleSize=0mil|Usage=FLASHONLY|Rotation=0.000|XOffset=0mil|YOffset=0mil|HoleType=Round|Shape=RoundedRectangle|*
%AMROUNDEDRECTD32*
21,1,0.0472,0.0598,0,0,0.0*
21,1,0.0354,0.0717,0,0,0.0*
1,1,0.0118,0.0177,-0.0299*
1,1,0.0118,-0.0177,-0.0299*
1,1,0.0118,-0.0177,0.0299*
1,1,0.0118,0.0177,0.0299*
%
%ADD32ROUNDEDRECTD32*%
%ADD33R,0.0591X0.0787*%
%ADD34R,0.0827X0.0610*%
%ADD35R,0.2283X0.0984*%
%ADD36R,0.0394X0.0236*%
%ADD37R,0.0610X0.0827*%
%ADD38O,0.0571X0.0236*%
%ADD39R,0.1181X0.2953*%
%ADD40O,0.0571X0.0118*%
%ADD41O,0.0118X0.0571*%
%ADD42R,0.0610X0.0374*%
%ADD45R,0.0457X0.0717*%
%ADD87R,0.0394X0.1339*%
%ADD88R,0.4213X0.3386*%
%ADD91O,0.0900X0.0650*%
%ADD92R,0.0900X0.0650*%
%ADD93O,0.0750X0.0650*%
%ADD94C,0.0079*%
%ADD95C,0.1380*%
%ADD96R,0.0748X0.0748*%
%ADD97C,0.0748*%
%ADD98R,0.0750X0.0650*%
%ADD99O,0.0650X0.0900*%
%ADD100R,0.0650X0.0900*%
%ADD101O,0.0650X0.0750*%
%ADD102R,0.0650X0.0750*%
%ADD103O,0.1181X0.2559*%
%ADD104O,0.2559X0.1181*%
D19*
X014351Y009128D02*
D03*
X012555D02*
D03*
X009405D02*
D03*
X0112D02*
D03*
X015706D02*
D03*
X017501D02*
D03*
X018857D02*
D03*
X020652D02*
D03*
D20*
X013453Y006628D02*
D03*
X010302D02*
D03*
X016604D02*
D03*
X019754D02*
D03*
D21*
X019416Y002055D02*
D03*
X017054D02*
D03*
Y003711D02*
D03*
X019416D02*
D03*
D22*
X01265Y012295D02*
D03*
Y011705D02*
D03*
X015282Y0161D02*
D03*
Y015509D02*
D03*
X01465Y0161D02*
D03*
Y015509D02*
D03*
X013425Y013935D02*
D03*
Y014526D02*
D03*
X012725Y013935D02*
D03*
Y014526D02*
D03*
X018781Y012808D02*
D03*
Y012217D02*
D03*
X018149D02*
D03*
Y012808D02*
D03*
X02701Y021745D02*
D03*
Y021155D02*
D03*
X031427Y013002D02*
D03*
Y012411D02*
D03*
X02935Y017095D02*
D03*
Y016505D02*
D03*
X0237Y016851D02*
D03*
Y017442D02*
D03*
X015182Y021805D02*
D03*
Y022395D02*
D03*
X01455Y021805D02*
D03*
Y022395D02*
D03*
X013918Y021805D02*
D03*
Y022395D02*
D03*
D23*
X022197Y021194D02*
D03*
Y021784D02*
D03*
Y02068D02*
D03*
Y02009D02*
D03*
Y019256D02*
D03*
Y018665D02*
D03*
Y018151D02*
D03*
Y017561D02*
D03*
X01335Y010895D02*
D03*
Y010305D02*
D03*
X031073Y015973D02*
D03*
Y015382D02*
D03*
Y020545D02*
D03*
Y019955D02*
D03*
X0291Y012955D02*
D03*
Y013545D02*
D03*
X031428Y014145D02*
D03*
Y013555D02*
D03*
X026865Y01707D02*
D03*
Y01648D02*
D03*
X021147Y017788D02*
D03*
Y017198D02*
D03*
X020476Y017788D02*
D03*
Y017198D02*
D03*
X019805Y017788D02*
D03*
Y017198D02*
D03*
X019134Y017788D02*
D03*
Y017198D02*
D03*
X0181Y017555D02*
D03*
Y018145D02*
D03*
Y019249D02*
D03*
Y018659D02*
D03*
X018116Y021194D02*
D03*
Y021784D02*
D03*
Y02068D02*
D03*
Y02009D02*
D03*
D24*
X02338Y021277D02*
D03*
X022789D02*
D03*
X023388Y020606D02*
D03*
X022797D02*
D03*
X023393Y018744D02*
D03*
X022802D02*
D03*
X02338Y018073D02*
D03*
X022789D02*
D03*
X010355Y014529D02*
D03*
X010945D02*
D03*
X012049D02*
D03*
X011459D02*
D03*
X018465Y0154D02*
D03*
X017874D02*
D03*
X017837Y0144D02*
D03*
X018428D02*
D03*
X029299Y02265D02*
D03*
X028709D02*
D03*
X027605D02*
D03*
X028195D02*
D03*
X029354Y018705D02*
D03*
X028763D02*
D03*
X027655D02*
D03*
X028245D02*
D03*
X016917Y018749D02*
D03*
X017508D02*
D03*
X016917Y018078D02*
D03*
X017508D02*
D03*
X017524Y020602D02*
D03*
X016933D02*
D03*
X017524Y021273D02*
D03*
X016933D02*
D03*
D25*
X011445Y0167D02*
D03*
X010855D02*
D03*
X011445Y016068D02*
D03*
X010855D02*
D03*
X011445Y015437D02*
D03*
X010855D02*
D03*
X018465Y0161D02*
D03*
X017835D02*
D03*
X016805Y01965D02*
D03*
X017395D02*
D03*
D26*
X010432Y013647D02*
D03*
X010932D02*
D03*
X011432D02*
D03*
X011932D02*
D03*
Y011702D02*
D03*
X011432D02*
D03*
X010932D02*
D03*
X010432D02*
D03*
X0277Y019788D02*
D03*
X0282D02*
D03*
X0287D02*
D03*
X0292D02*
D03*
Y021732D02*
D03*
X0287D02*
D03*
X0282D02*
D03*
X0277D02*
D03*
X025918Y016252D02*
D03*
X025418D02*
D03*
X024918D02*
D03*
X024418D02*
D03*
Y018197D02*
D03*
X024918D02*
D03*
X025418D02*
D03*
X025918D02*
D03*
D27*
X014948Y011904D02*
D03*
D28*
X017252Y010999D02*
D03*
Y011904D02*
D03*
Y01281D02*
D03*
D29*
X014941Y01417D02*
D03*
X016859D02*
D03*
D30*
X0206Y013757D02*
D03*
Y011552D02*
D03*
D31*
X018501Y013749D02*
D03*
X017832D02*
D03*
D32*
X03299Y01565D02*
D03*
X031805D02*
D03*
X03299Y02025D02*
D03*
X031805D02*
D03*
D33*
X030265Y014283D02*
D03*
Y012157D02*
D03*
D34*
X029084Y0036D02*
D03*
X030816D02*
D03*
D35*
X031658Y00755D02*
D03*
X027682D02*
D03*
D36*
X027559Y017074D02*
D03*
Y0167D02*
D03*
Y016326D02*
D03*
X028641D02*
D03*
Y017074D02*
D03*
D37*
X026235Y012888D02*
D03*
Y014621D02*
D03*
D38*
X019074Y021685D02*
D03*
Y021185D02*
D03*
Y020685D02*
D03*
Y020185D02*
D03*
Y019685D02*
D03*
Y019185D02*
D03*
Y018685D02*
D03*
X02122Y021685D02*
D03*
Y021185D02*
D03*
Y020685D02*
D03*
Y020185D02*
D03*
Y019685D02*
D03*
Y019185D02*
D03*
Y018685D02*
D03*
D39*
X024796Y01373D02*
D03*
X022827D02*
D03*
D40*
X011437Y018067D02*
D03*
Y018264D02*
D03*
Y018461D02*
D03*
Y018658D02*
D03*
Y018855D02*
D03*
X011437Y019052D02*
D03*
Y019248D02*
D03*
X011437Y019445D02*
D03*
Y019642D02*
D03*
Y019839D02*
D03*
Y020036D02*
D03*
Y020233D02*
D03*
X014763D02*
D03*
Y020036D02*
D03*
Y019839D02*
D03*
Y019642D02*
D03*
Y019445D02*
D03*
X014763Y019248D02*
D03*
Y019052D02*
D03*
X014763Y018855D02*
D03*
Y018658D02*
D03*
Y018461D02*
D03*
Y018264D02*
D03*
Y018067D02*
D03*
D41*
X012017Y020813D02*
D03*
X012214D02*
D03*
X012411D02*
D03*
X012608D02*
D03*
X012805D02*
D03*
X013002Y020813D02*
D03*
X013198D02*
D03*
X013395Y020813D02*
D03*
X013592D02*
D03*
X013789D02*
D03*
X013986D02*
D03*
X014183D02*
D03*
Y017487D02*
D03*
X013986D02*
D03*
X013789D02*
D03*
X013592D02*
D03*
X013395D02*
D03*
X013198Y017487D02*
D03*
X013002D02*
D03*
X012805Y017487D02*
D03*
X012608D02*
D03*
X012411D02*
D03*
X012214D02*
D03*
X012017D02*
D03*
D42*
X013283Y016135D02*
D03*
Y015465D02*
D03*
X012417Y016135D02*
D03*
Y015465D02*
D03*
D45*
X027919Y002374D02*
D03*
X029081D02*
D03*
D87*
X025476Y010963D02*
D03*
X024806D02*
D03*
X024137D02*
D03*
X023468D02*
D03*
X022798D02*
D03*
D88*
X024137Y006789D02*
D03*
D91*
X008239Y0179D02*
D03*
Y0159D02*
D03*
Y0139D02*
D03*
Y0129D02*
D03*
Y0119D02*
D03*
Y0149D02*
D03*
Y0169D02*
D03*
D92*
Y0109D02*
D03*
D93*
X008429Y0205D02*
D03*
Y02151D02*
D03*
Y02249D02*
D03*
Y0235D02*
D03*
X031102Y017025D02*
D03*
Y018005D02*
D03*
Y021725D02*
D03*
Y022705D02*
D03*
D94*
X015244Y012204D02*
D03*
X015047D02*
D03*
X01485D02*
D03*
X014653D02*
D03*
X015047D02*
D03*
X01485D02*
D03*
X014653D02*
D03*
X015244Y012008D02*
D03*
X015047D02*
D03*
X01485D02*
D03*
X014653D02*
D03*
X015244Y011811D02*
D03*
X015047D02*
D03*
X01485D02*
D03*
X014653D02*
D03*
X015244Y011614D02*
D03*
X015047D02*
D03*
X01485D02*
D03*
X014653D02*
D03*
D95*
X0103Y0234D02*
D03*
X0327Y02525D02*
D03*
X03245Y00165D02*
D03*
X00835D02*
D03*
D96*
X012805Y0254D02*
D03*
D97*
X011805D02*
D03*
X010805D02*
D03*
X009805D02*
D03*
X008805D02*
D03*
D98*
X031102Y019015D02*
D03*
Y023715D02*
D03*
D99*
X0249Y0241D02*
D03*
X0239D02*
D03*
X0229D02*
D03*
X0259D02*
D03*
D100*
X0219D02*
D03*
D101*
X02066D02*
D03*
X01965D02*
D03*
X01867D02*
D03*
X01766D02*
D03*
X01648Y0241D02*
D03*
X0155D02*
D03*
D102*
X01449D02*
D03*
D103*
X015035Y002906D02*
D03*
X02175Y00305D02*
D03*
D104*
X0122Y0033D02*
D03*
X024112Y002735D02*
D03*
M02*
