G04*
G04 #@! TF.GenerationSoftware,Altium Limited,Altium Designer,21.9.2 (33)*
G04*
G04 Layer_Color=8388736*
%FSTAX24Y24*%
%MOIN*%
G70*
G04*
G04 #@! TF.SameCoordinates,C045CB64-A717-4E46-AD80-C8F196844A4B*
G04*
G04*
G04 #@! TF.FilePolarity,Negative*
G04*
G01*
G75*
%ADD46R,0.0454X0.1084*%
%ADD47R,0.2285X0.2915*%
%ADD48R,0.0611X0.1419*%
%ADD49R,0.0395X0.0395*%
%ADD50R,0.0434X0.0297*%
%ADD51R,0.0297X0.0434*%
%ADD52R,0.0395X0.0395*%
G04:AMPARAMS|DCode=53|XSize=85.6mil|YSize=31.6mil|CornerRadius=7mil|HoleSize=0mil|Usage=FLASHONLY|Rotation=90.000|XOffset=0mil|YOffset=0mil|HoleType=Round|Shape=RoundedRectangle|*
%AMROUNDEDRECTD53*
21,1,0.0856,0.0177,0,0,90.0*
21,1,0.0717,0.0316,0,0,90.0*
1,1,0.0139,0.0089,0.0358*
1,1,0.0139,0.0089,-0.0358*
1,1,0.0139,-0.0089,-0.0358*
1,1,0.0139,-0.0089,0.0358*
%
%ADD53ROUNDEDRECTD53*%
%ADD54R,0.0926X0.1360*%
%ADD55R,0.0926X0.0474*%
G04:AMPARAMS|DCode=56|XSize=96.2mil|YSize=99.3mil|CornerRadius=15mil|HoleSize=0mil|Usage=FLASHONLY|Rotation=0.000|XOffset=0mil|YOffset=0mil|HoleType=Round|Shape=RoundedRectangle|*
%AMROUNDEDRECTD56*
21,1,0.0962,0.0693,0,0,0.0*
21,1,0.0661,0.0993,0,0,0.0*
1,1,0.0300,0.0331,-0.0346*
1,1,0.0300,-0.0331,-0.0346*
1,1,0.0300,-0.0331,0.0346*
1,1,0.0300,0.0331,0.0346*
%
%ADD56ROUNDEDRECTD56*%
%ADD57R,0.0710X0.1458*%
%ADD58R,0.0356X0.0395*%
G04:AMPARAMS|DCode=59|XSize=55.2mil|YSize=79.7mil|CornerRadius=9.9mil|HoleSize=0mil|Usage=FLASHONLY|Rotation=0.000|XOffset=0mil|YOffset=0mil|HoleType=Round|Shape=RoundedRectangle|*
%AMROUNDEDRECTD59*
21,1,0.0552,0.0598,0,0,0.0*
21,1,0.0354,0.0797,0,0,0.0*
1,1,0.0198,0.0177,-0.0299*
1,1,0.0198,-0.0177,-0.0299*
1,1,0.0198,-0.0177,0.0299*
1,1,0.0198,0.0177,0.0299*
%
%ADD59ROUNDEDRECTD59*%
%ADD60R,0.0671X0.0867*%
%ADD61R,0.0907X0.0690*%
%ADD62R,0.2363X0.1064*%
%ADD63R,0.0474X0.0316*%
%ADD64R,0.0690X0.0907*%
%ADD65O,0.0651X0.0316*%
%ADD66R,0.1261X0.3033*%
%ADD67O,0.0651X0.0198*%
%ADD68O,0.0198X0.0651*%
%ADD69R,0.0690X0.0454*%
%ADD70R,0.0449X0.1394*%
%ADD71R,0.4268X0.3441*%
%ADD72R,0.0537X0.0797*%
%ADD73O,0.0980X0.0730*%
%ADD74R,0.0980X0.0730*%
%ADD75O,0.0830X0.0730*%
%ADD76C,0.1460*%
%ADD77R,0.0828X0.0828*%
%ADD78C,0.0828*%
%ADD79R,0.0830X0.0730*%
%ADD80O,0.0730X0.0980*%
%ADD81R,0.0730X0.0980*%
%ADD82O,0.0730X0.0830*%
%ADD83R,0.0730X0.0830*%
%ADD84O,0.1261X0.2639*%
%ADD85O,0.2639X0.1261*%
%ADD86C,0.0395*%
D46*
X014351Y009128D02*
D03*
X012555D02*
D03*
X009405D02*
D03*
X0112D02*
D03*
X015706D02*
D03*
X017501D02*
D03*
X018857D02*
D03*
X020652D02*
D03*
D47*
X013453Y006628D02*
D03*
X010302D02*
D03*
X016604D02*
D03*
X019754D02*
D03*
D48*
X019416Y002055D02*
D03*
X017054D02*
D03*
Y003711D02*
D03*
X019416D02*
D03*
D49*
X01265Y012295D02*
D03*
Y011705D02*
D03*
X015282Y0161D02*
D03*
Y015509D02*
D03*
X01465Y0161D02*
D03*
Y015509D02*
D03*
X013425Y013935D02*
D03*
Y014526D02*
D03*
X012725Y013935D02*
D03*
Y014526D02*
D03*
X018781Y012808D02*
D03*
Y012217D02*
D03*
X018149D02*
D03*
Y012808D02*
D03*
X02701Y021745D02*
D03*
Y021155D02*
D03*
X031427Y013002D02*
D03*
Y012411D02*
D03*
X02935Y017095D02*
D03*
Y016505D02*
D03*
X0237Y016851D02*
D03*
Y017442D02*
D03*
X015182Y021805D02*
D03*
Y022395D02*
D03*
X01455Y021805D02*
D03*
Y022395D02*
D03*
X013918Y021805D02*
D03*
Y022395D02*
D03*
D50*
X022197Y021194D02*
D03*
Y021784D02*
D03*
Y02068D02*
D03*
Y02009D02*
D03*
Y019256D02*
D03*
Y018665D02*
D03*
Y018151D02*
D03*
Y017561D02*
D03*
X01335Y010895D02*
D03*
Y010305D02*
D03*
X031073Y015973D02*
D03*
Y015382D02*
D03*
Y020545D02*
D03*
Y019955D02*
D03*
X0291Y012955D02*
D03*
Y013545D02*
D03*
X031428Y014145D02*
D03*
Y013555D02*
D03*
X026865Y01707D02*
D03*
Y01648D02*
D03*
X021147Y017788D02*
D03*
Y017198D02*
D03*
X020476Y017788D02*
D03*
Y017198D02*
D03*
X019805Y017788D02*
D03*
Y017198D02*
D03*
X019134Y017788D02*
D03*
Y017198D02*
D03*
X0181Y017555D02*
D03*
Y018145D02*
D03*
Y019249D02*
D03*
Y018659D02*
D03*
X018116Y021194D02*
D03*
Y021784D02*
D03*
Y02068D02*
D03*
Y02009D02*
D03*
D51*
X02338Y021277D02*
D03*
X022789D02*
D03*
X023388Y020606D02*
D03*
X022797D02*
D03*
X023393Y018744D02*
D03*
X022802D02*
D03*
X02338Y018073D02*
D03*
X022789D02*
D03*
X010355Y014529D02*
D03*
X010945D02*
D03*
X012049D02*
D03*
X011459D02*
D03*
X018465Y0154D02*
D03*
X017874D02*
D03*
X017837Y0144D02*
D03*
X018428D02*
D03*
X029299Y02265D02*
D03*
X028709D02*
D03*
X027605D02*
D03*
X028195D02*
D03*
X029354Y018705D02*
D03*
X028763D02*
D03*
X027655D02*
D03*
X028245D02*
D03*
X016917Y018749D02*
D03*
X017508D02*
D03*
X016917Y018078D02*
D03*
X017508D02*
D03*
X017524Y020602D02*
D03*
X016933D02*
D03*
X017524Y021273D02*
D03*
X016933D02*
D03*
D52*
X011445Y0167D02*
D03*
X010855D02*
D03*
X011445Y016068D02*
D03*
X010855D02*
D03*
X011445Y015437D02*
D03*
X010855D02*
D03*
X018465Y0161D02*
D03*
X017835D02*
D03*
X016805Y01965D02*
D03*
X017395D02*
D03*
D53*
X010432Y013647D02*
D03*
X010932D02*
D03*
X011432D02*
D03*
X011932D02*
D03*
Y011702D02*
D03*
X011432D02*
D03*
X010932D02*
D03*
X010432D02*
D03*
X0277Y019788D02*
D03*
X0282D02*
D03*
X0287D02*
D03*
X0292D02*
D03*
Y021732D02*
D03*
X0287D02*
D03*
X0282D02*
D03*
X0277D02*
D03*
X025918Y016252D02*
D03*
X025418D02*
D03*
X024918D02*
D03*
X024418D02*
D03*
Y018197D02*
D03*
X024918D02*
D03*
X025418D02*
D03*
X025918D02*
D03*
D54*
X014948Y011904D02*
D03*
D55*
X017252Y010999D02*
D03*
Y011904D02*
D03*
Y01281D02*
D03*
D56*
X014941Y01417D02*
D03*
X016859D02*
D03*
D57*
X0206Y013757D02*
D03*
Y011552D02*
D03*
D58*
X018501Y013749D02*
D03*
X017832D02*
D03*
D59*
X03299Y01565D02*
D03*
X031805D02*
D03*
X03299Y02025D02*
D03*
X031805D02*
D03*
D60*
X030265Y014283D02*
D03*
Y012157D02*
D03*
D61*
X029084Y0036D02*
D03*
X030816D02*
D03*
D62*
X031658Y00755D02*
D03*
X027682D02*
D03*
D63*
X027559Y017074D02*
D03*
Y0167D02*
D03*
Y016326D02*
D03*
X028641D02*
D03*
Y017074D02*
D03*
D64*
X026235Y012888D02*
D03*
Y014621D02*
D03*
D65*
X019074Y021685D02*
D03*
Y021185D02*
D03*
Y020685D02*
D03*
Y020185D02*
D03*
Y019685D02*
D03*
Y019185D02*
D03*
Y018685D02*
D03*
X02122Y021685D02*
D03*
Y021185D02*
D03*
Y020685D02*
D03*
Y020185D02*
D03*
Y019685D02*
D03*
Y019185D02*
D03*
Y018685D02*
D03*
D66*
X024796Y01373D02*
D03*
X022827D02*
D03*
D67*
X011437Y018067D02*
D03*
Y018264D02*
D03*
Y018461D02*
D03*
Y018658D02*
D03*
Y018855D02*
D03*
X011437Y019052D02*
D03*
Y019248D02*
D03*
X011437Y019445D02*
D03*
Y019642D02*
D03*
Y019839D02*
D03*
Y020036D02*
D03*
Y020233D02*
D03*
X014763D02*
D03*
Y020036D02*
D03*
Y019839D02*
D03*
Y019642D02*
D03*
Y019445D02*
D03*
X014763Y019248D02*
D03*
Y019052D02*
D03*
X014763Y018855D02*
D03*
Y018658D02*
D03*
Y018461D02*
D03*
Y018264D02*
D03*
Y018067D02*
D03*
D68*
X012017Y020813D02*
D03*
X012214D02*
D03*
X012411D02*
D03*
X012608D02*
D03*
X012805D02*
D03*
X013002Y020813D02*
D03*
X013198D02*
D03*
X013395Y020813D02*
D03*
X013592D02*
D03*
X013789D02*
D03*
X013986D02*
D03*
X014183D02*
D03*
Y017487D02*
D03*
X013986D02*
D03*
X013789D02*
D03*
X013592D02*
D03*
X013395D02*
D03*
X013198Y017487D02*
D03*
X013002D02*
D03*
X012805Y017487D02*
D03*
X012608D02*
D03*
X012411D02*
D03*
X012214D02*
D03*
X012017D02*
D03*
D69*
X013283Y016135D02*
D03*
Y015465D02*
D03*
X012417Y016135D02*
D03*
Y015465D02*
D03*
D70*
X025476Y010963D02*
D03*
X024806D02*
D03*
X024137D02*
D03*
X023468D02*
D03*
X022798D02*
D03*
D71*
X024137Y006789D02*
D03*
D72*
X027919Y002374D02*
D03*
X029081D02*
D03*
D73*
X008239Y0179D02*
D03*
Y0159D02*
D03*
Y0139D02*
D03*
Y0129D02*
D03*
Y0119D02*
D03*
Y0149D02*
D03*
Y0169D02*
D03*
D74*
Y0109D02*
D03*
D75*
X008429Y0205D02*
D03*
Y02151D02*
D03*
Y02249D02*
D03*
Y0235D02*
D03*
X031102Y017025D02*
D03*
Y018005D02*
D03*
Y021725D02*
D03*
Y022705D02*
D03*
D76*
X0103Y0234D02*
D03*
X0327Y02525D02*
D03*
X03245Y00165D02*
D03*
X00835D02*
D03*
D77*
X012805Y0254D02*
D03*
D78*
X011805D02*
D03*
X010805D02*
D03*
X009805D02*
D03*
X008805D02*
D03*
D79*
X031102Y019015D02*
D03*
Y023715D02*
D03*
D80*
X0249Y0241D02*
D03*
X0239D02*
D03*
X0229D02*
D03*
X0259D02*
D03*
D81*
X0219D02*
D03*
D82*
X02066D02*
D03*
X01965D02*
D03*
X01867D02*
D03*
X01766D02*
D03*
X01648Y0241D02*
D03*
X0155D02*
D03*
D83*
X01449D02*
D03*
D84*
X015035Y002906D02*
D03*
X02175Y00305D02*
D03*
D85*
X0122Y0033D02*
D03*
X024112Y002735D02*
D03*
D86*
X01565Y0207D02*
D03*
X012797Y021647D02*
D03*
X0157Y01895D02*
D03*
X01615Y01865D02*
D03*
X0165Y0206D02*
D03*
X01595Y0198D02*
D03*
Y02025D02*
D03*
X0167Y0166D02*
D03*
X016397Y017993D02*
D03*
X016619Y017482D02*
D03*
X0158Y0176D02*
D03*
X01915Y01715D02*
D03*
X0112Y02165D02*
D03*
X01025Y0208D02*
D03*
X01235Y022D02*
D03*
X01595Y01935D02*
D03*
X009449Y00952D02*
D03*
Y008929D02*
D03*
Y008339D02*
D03*
X012609Y00952D02*
D03*
X015719D02*
D03*
X018829D02*
D03*
Y008929D02*
D03*
X015719D02*
D03*
X012609D02*
D03*
X018829Y008339D02*
D03*
X015719D02*
D03*
X012609D02*
D03*
X0132D02*
D03*
X01631D02*
D03*
X01942D02*
D03*
X0132Y008929D02*
D03*
X01631D02*
D03*
X01942D02*
D03*
Y00952D02*
D03*
X01631D02*
D03*
X0132D02*
D03*
X01004Y008339D02*
D03*
Y008929D02*
D03*
Y00952D02*
D03*
X009751Y00774D02*
D03*
X010341D02*
D03*
X010932D02*
D03*
X011522D02*
D03*
X012113D02*
D03*
X016247D02*
D03*
X016837D02*
D03*
X018018D02*
D03*
X018609D02*
D03*
X020971D02*
D03*
X02038D02*
D03*
X01979D02*
D03*
X019199D02*
D03*
X017428D02*
D03*
X015656D02*
D03*
X015065D02*
D03*
X014475D02*
D03*
X013884D02*
D03*
X013294D02*
D03*
X012703D02*
D03*
X00916D02*
D03*
X013294Y004787D02*
D03*
X012703D02*
D03*
X012113D02*
D03*
X011522D02*
D03*
X010932D02*
D03*
X010341D02*
D03*
X009751D02*
D03*
X00916D02*
D03*
X013294Y005378D02*
D03*
X012703D02*
D03*
X012113D02*
D03*
X011522D02*
D03*
X010932D02*
D03*
X010341D02*
D03*
X009751D02*
D03*
X00916D02*
D03*
D03*
X009751D02*
D03*
X010341D02*
D03*
X010932D02*
D03*
X011522D02*
D03*
X012113D02*
D03*
X012703D02*
D03*
X013294D02*
D03*
X013884D02*
D03*
X014475D02*
D03*
X015065D02*
D03*
X015656D02*
D03*
X016247D02*
D03*
X016837D02*
D03*
X017428D02*
D03*
X018018D02*
D03*
X018609D02*
D03*
X019199D02*
D03*
X01979D02*
D03*
X02038D02*
D03*
X020971D02*
D03*
X00916Y005968D02*
D03*
X009751D02*
D03*
X010341D02*
D03*
X010932D02*
D03*
X011522D02*
D03*
X012113D02*
D03*
X012703D02*
D03*
X013294D02*
D03*
X013884D02*
D03*
X014475D02*
D03*
X015065D02*
D03*
X015656D02*
D03*
X016247D02*
D03*
X016837D02*
D03*
X017428D02*
D03*
X018018D02*
D03*
X018609D02*
D03*
X019199D02*
D03*
X01979D02*
D03*
X02038D02*
D03*
X020971D02*
D03*
X00916Y006559D02*
D03*
X009751D02*
D03*
X010341D02*
D03*
X010932D02*
D03*
X011522D02*
D03*
X012113D02*
D03*
X012703D02*
D03*
X013294D02*
D03*
X013884D02*
D03*
X014475D02*
D03*
X015065D02*
D03*
X015656D02*
D03*
X016247D02*
D03*
X016837D02*
D03*
X017428D02*
D03*
X018018D02*
D03*
X018609D02*
D03*
X019199D02*
D03*
X01979D02*
D03*
X02038D02*
D03*
X020971D02*
D03*
X00916Y007149D02*
D03*
X009751D02*
D03*
X010341D02*
D03*
X010932D02*
D03*
X011522D02*
D03*
X012113D02*
D03*
X012703D02*
D03*
X013294D02*
D03*
X013884D02*
D03*
X014475D02*
D03*
X015065D02*
D03*
X015656D02*
D03*
X016247D02*
D03*
X016837D02*
D03*
X017428D02*
D03*
X018018D02*
D03*
X018609D02*
D03*
X019199D02*
D03*
X01979D02*
D03*
X02038D02*
D03*
X020971D02*
D03*
X01809Y01954D02*
D03*
X030151Y017074D02*
D03*
X02645Y0217D02*
D03*
X0271Y0187D02*
D03*
X01305Y0136D02*
D03*
X01705Y0011D02*
D03*
X0174Y01915D02*
D03*
X022197Y019673D02*
D03*
X01695Y01925D02*
D03*
X0098Y011702D02*
D03*
X01015Y015632D02*
D03*
X009984Y019316D02*
D03*
X0104Y01635D02*
D03*
X01915Y01555D02*
D03*
X0198Y016883D02*
D03*
X0291Y0122D02*
D03*
X01395Y0198D02*
D03*
X02865Y01155D02*
D03*
X0276D02*
D03*
X0237Y01575D02*
D03*
X0254Y01905D02*
D03*
X0247D02*
D03*
X01325Y02245D02*
D03*
X0159Y0161D02*
D03*
X01335Y01125D02*
D03*
X0234Y0197D02*
D03*
X0098Y01595D02*
D03*
X014967Y01505D02*
D03*
X0105Y01885D02*
D03*
Y0184D02*
D03*
X01195Y0129D02*
D03*
X01145D02*
D03*
X01095D02*
D03*
X0302Y01505D02*
D03*
X0194Y00115D02*
D03*
X020468Y016918D02*
D03*
X02115Y0169D02*
D03*
X0187Y0226D02*
D03*
X01635D02*
D03*
M02*
