G04*
G04 #@! TF.GenerationSoftware,Altium Limited,Altium Designer,21.9.2 (33)*
G04*
G04 Layer_Color=2752767*
%FSTAX24Y24*%
%MOIN*%
G70*
G04*
G04 #@! TF.SameCoordinates,C045CB64-A717-4E46-AD80-C8F196844A4B*
G04*
G04*
G04 #@! TF.FilePolarity,Positive*
G04*
G01*
G75*
%ADD109C,0.0020*%
%ADD110C,0.0027*%
D109*
X008159Y01782D02*
Y01798D01*
X008319D01*
Y01782D01*
X008159D01*
Y01582D02*
Y01598D01*
X008319D01*
Y01582D01*
X008159D01*
Y01382D02*
Y01398D01*
X008319D01*
Y01382D01*
X008159D01*
Y01282D02*
Y01298D01*
X008319D01*
Y01282D01*
X008159D01*
Y01182D02*
Y01198D01*
X008319D01*
Y01182D01*
X008159D01*
Y01082D02*
Y01098D01*
X008319D01*
Y01082D01*
X008159D01*
Y01482D02*
Y01498D01*
X008319D01*
Y01482D01*
X008159D01*
Y01682D02*
Y01698D01*
X008319D01*
Y01682D01*
X008159D01*
X015244Y012124D02*
X015164Y012284D01*
X015324D01*
X015244Y012124D01*
X015047D02*
X014967Y012284D01*
X015127D01*
X015047Y012124D01*
X01485D02*
X01477Y012284D01*
X01493D01*
X01485Y012124D01*
X014653D02*
X014573Y012284D01*
X014733D01*
X014653Y012124D01*
X015047D02*
X014967Y012284D01*
X015127D01*
X015047Y012124D01*
X01485D02*
X01477Y012284D01*
X01493D01*
X01485Y012124D01*
X014653D02*
X014573Y012284D01*
X014733D01*
X014653Y012124D01*
X015244Y011928D02*
X015164Y012088D01*
X015324D01*
X015244Y011928D01*
X015047D02*
X014967Y012088D01*
X015127D01*
X015047Y011928D01*
X01485D02*
X01477Y012088D01*
X01493D01*
X01485Y011928D01*
X014653D02*
X014573Y012088D01*
X014733D01*
X014653Y011928D01*
X015244Y011731D02*
X015164Y011891D01*
X015324D01*
X015244Y011731D01*
X015047D02*
X014967Y011891D01*
X015127D01*
X015047Y011731D01*
X01485D02*
X01477Y011891D01*
X01493D01*
X01485Y011731D01*
X014653D02*
X014573Y011891D01*
X014733D01*
X014653Y011731D01*
X015244Y011534D02*
X015164Y011694D01*
X015324D01*
X015244Y011534D01*
X015047D02*
X014967Y011694D01*
X015127D01*
X015047Y011534D01*
X01485D02*
X01477Y011694D01*
X01493D01*
X01485Y011534D01*
X014653D02*
X014573Y011694D01*
X014733D01*
X014653Y011534D01*
X0103Y02332D02*
X01034Y02336D01*
X01038D01*
X01034Y0234D01*
X01038Y02344D01*
X01034D01*
X0103Y02348D01*
X01026Y02344D01*
X01022D01*
X01026Y0234D01*
X01022Y02336D01*
X01026D01*
X0103Y02332D01*
X012725Y02532D02*
X012765Y0254D01*
X012725Y02548D01*
X012805Y02544D01*
X012885Y02548D01*
X012845Y0254D01*
X012885Y02532D01*
X012805Y02536D01*
X012725Y02532D01*
X011725D02*
X011765Y0254D01*
X011725Y02548D01*
X011805Y02544D01*
X011885Y02548D01*
X011845Y0254D01*
X011885Y02532D01*
X011805Y02536D01*
X011725Y02532D01*
X010725D02*
X010765Y0254D01*
X010725Y02548D01*
X010805Y02544D01*
X010885Y02548D01*
X010845Y0254D01*
X010885Y02532D01*
X010805Y02536D01*
X010725Y02532D01*
X009725D02*
X009765Y0254D01*
X009725Y02548D01*
X009805Y02544D01*
X009885Y02548D01*
X009845Y0254D01*
X009885Y02532D01*
X009805Y02536D01*
X009725Y02532D01*
X008725D02*
X008765Y0254D01*
X008725Y02548D01*
X008805Y02544D01*
X008885Y02548D01*
X008845Y0254D01*
X008885Y02532D01*
X008805Y02536D01*
X008725Y02532D01*
X0327Y02517D02*
X03274Y02521D01*
X03278D01*
X03274Y02525D01*
X03278Y02529D01*
X03274D01*
X0327Y02533D01*
X03266Y02529D01*
X03262D01*
X03266Y02525D01*
X03262Y02521D01*
X03266D01*
X0327Y02517D01*
X03245Y00157D02*
X03249Y00161D01*
X03253D01*
X03249Y00165D01*
X03253Y00169D01*
X03249D01*
X03245Y00173D01*
X03241Y00169D01*
X03237D01*
X03241Y00165D01*
X03237Y00161D01*
X03241D01*
X03245Y00157D01*
X00835D02*
X00839Y00161D01*
X00843D01*
X00839Y00165D01*
X00843Y00169D01*
X00839D01*
X00835Y00173D01*
X00831Y00169D01*
X00827D01*
X00831Y00165D01*
X00827Y00161D01*
X00831D01*
X00835Y00157D01*
X014995Y002866D02*
Y002826D01*
X015075D01*
Y002866D01*
X015115D01*
Y002946D01*
X015075D01*
Y002986D01*
X014995D01*
Y002946D01*
X014955D01*
Y002866D01*
X014995D01*
X01216Y00326D02*
Y00322D01*
X01224D01*
Y00326D01*
X01228D01*
Y00334D01*
X01224D01*
Y00338D01*
X01216D01*
Y00334D01*
X01212D01*
Y00326D01*
X01216D01*
X024072Y002695D02*
Y002655D01*
X024152D01*
Y002695D01*
X024192D01*
Y002775D01*
X024152D01*
Y002815D01*
X024072D01*
Y002775D01*
X024032D01*
Y002695D01*
X024072D01*
X02171Y00301D02*
Y00297D01*
X02179D01*
Y00301D01*
X02183D01*
Y00309D01*
X02179D01*
Y00313D01*
X02171D01*
Y00309D01*
X02167D01*
Y00301D01*
X02171D01*
X01557Y02062D02*
X01561D01*
X01565Y02066D01*
X01569Y02062D01*
X01573D01*
Y02066D01*
X01569Y0207D01*
X01573Y02074D01*
Y02078D01*
X01569D01*
X01565Y02074D01*
X01561Y02078D01*
X01557D01*
Y02074D01*
X01561Y0207D01*
X01557Y02066D01*
Y02062D01*
X012717Y021567D02*
X012757D01*
X012797Y021607D01*
X012837Y021567D01*
X012877D01*
Y021607D01*
X012837Y021647D01*
X012877Y021687D01*
Y021727D01*
X012837D01*
X012797Y021687D01*
X012757Y021727D01*
X012717D01*
Y021687D01*
X012757Y021647D01*
X012717Y021607D01*
Y021567D01*
X01562Y01887D02*
X01566D01*
X0157Y01891D01*
X01574Y01887D01*
X01578D01*
Y01891D01*
X01574Y01895D01*
X01578Y01899D01*
Y01903D01*
X01574D01*
X0157Y01899D01*
X01566Y01903D01*
X01562D01*
Y01899D01*
X01566Y01895D01*
X01562Y01891D01*
Y01887D01*
X01607Y01857D02*
X01611D01*
X01615Y01861D01*
X01619Y01857D01*
X01623D01*
Y01861D01*
X01619Y01865D01*
X01623Y01869D01*
Y01873D01*
X01619D01*
X01615Y01869D01*
X01611Y01873D01*
X01607D01*
Y01869D01*
X01611Y01865D01*
X01607Y01861D01*
Y01857D01*
X01642Y02052D02*
X01646D01*
X0165Y02056D01*
X01654Y02052D01*
X01658D01*
Y02056D01*
X01654Y0206D01*
X01658Y02064D01*
Y02068D01*
X01654D01*
X0165Y02064D01*
X01646Y02068D01*
X01642D01*
Y02064D01*
X01646Y0206D01*
X01642Y02056D01*
Y02052D01*
X01587Y01972D02*
X01591D01*
X01595Y01976D01*
X01599Y01972D01*
X01603D01*
Y01976D01*
X01599Y0198D01*
X01603Y01984D01*
Y01988D01*
X01599D01*
X01595Y01984D01*
X01591Y01988D01*
X01587D01*
Y01984D01*
X01591Y0198D01*
X01587Y01976D01*
Y01972D01*
Y02017D02*
X01591D01*
X01595Y02021D01*
X01599Y02017D01*
X01603D01*
Y02021D01*
X01599Y02025D01*
X01603Y02029D01*
Y02033D01*
X01599D01*
X01595Y02029D01*
X01591Y02033D01*
X01587D01*
Y02029D01*
X01591Y02025D01*
X01587Y02021D01*
Y02017D01*
X01662Y01652D02*
X01666D01*
X0167Y01656D01*
X01674Y01652D01*
X01678D01*
Y01656D01*
X01674Y0166D01*
X01678Y01664D01*
Y01668D01*
X01674D01*
X0167Y01664D01*
X01666Y01668D01*
X01662D01*
Y01664D01*
X01666Y0166D01*
X01662Y01656D01*
Y01652D01*
X016317Y017913D02*
X016357D01*
X016397Y017953D01*
X016437Y017913D01*
X016477D01*
Y017953D01*
X016437Y017993D01*
X016477Y018033D01*
Y018073D01*
X016437D01*
X016397Y018033D01*
X016357Y018073D01*
X016317D01*
Y018033D01*
X016357Y017993D01*
X016317Y017953D01*
Y017913D01*
X016539Y017402D02*
X016579D01*
X016619Y017442D01*
X016659Y017402D01*
X016699D01*
Y017442D01*
X016659Y017482D01*
X016699Y017522D01*
Y017562D01*
X016659D01*
X016619Y017522D01*
X016579Y017562D01*
X016539D01*
Y017522D01*
X016579Y017482D01*
X016539Y017442D01*
Y017402D01*
X01572Y01752D02*
X01576D01*
X0158Y01756D01*
X01584Y01752D01*
X01588D01*
Y01756D01*
X01584Y0176D01*
X01588Y01764D01*
Y01768D01*
X01584D01*
X0158Y01764D01*
X01576Y01768D01*
X01572D01*
Y01764D01*
X01576Y0176D01*
X01572Y01756D01*
Y01752D01*
X01907Y01707D02*
X01911D01*
X01915Y01711D01*
X01919Y01707D01*
X01923D01*
Y01711D01*
X01919Y01715D01*
X01923Y01719D01*
Y01723D01*
X01919D01*
X01915Y01719D01*
X01911Y01723D01*
X01907D01*
Y01719D01*
X01911Y01715D01*
X01907Y01711D01*
Y01707D01*
X01112Y02157D02*
X01116D01*
X0112Y02161D01*
X01124Y02157D01*
X01128D01*
Y02161D01*
X01124Y02165D01*
X01128Y02169D01*
Y02173D01*
X01124D01*
X0112Y02169D01*
X01116Y02173D01*
X01112D01*
Y02169D01*
X01116Y02165D01*
X01112Y02161D01*
Y02157D01*
X01017Y02072D02*
X01021D01*
X01025Y02076D01*
X01029Y02072D01*
X01033D01*
Y02076D01*
X01029Y0208D01*
X01033Y02084D01*
Y02088D01*
X01029D01*
X01025Y02084D01*
X01021Y02088D01*
X01017D01*
Y02084D01*
X01021Y0208D01*
X01017Y02076D01*
Y02072D01*
X01227Y02192D02*
X01231D01*
X01235Y02196D01*
X01239Y02192D01*
X01243D01*
Y02196D01*
X01239Y022D01*
X01243Y02204D01*
Y02208D01*
X01239D01*
X01235Y02204D01*
X01231Y02208D01*
X01227D01*
Y02204D01*
X01231Y022D01*
X01227Y02196D01*
Y02192D01*
X01587Y01927D02*
X01591D01*
X01595Y01931D01*
X01599Y01927D01*
X01603D01*
Y01931D01*
X01599Y01935D01*
X01603Y01939D01*
Y01943D01*
X01599D01*
X01595Y01939D01*
X01591Y01943D01*
X01587D01*
Y01939D01*
X01591Y01935D01*
X01587Y01931D01*
Y01927D01*
X009369Y00944D02*
X009409D01*
X009449Y00948D01*
X009489Y00944D01*
X009529D01*
Y00948D01*
X009489Y00952D01*
X009529Y00956D01*
Y0096D01*
X009489D01*
X009449Y00956D01*
X009409Y0096D01*
X009369D01*
Y00956D01*
X009409Y00952D01*
X009369Y00948D01*
Y00944D01*
Y008849D02*
X009409D01*
X009449Y008889D01*
X009489Y008849D01*
X009529D01*
Y008889D01*
X009489Y008929D01*
X009529Y008969D01*
Y009009D01*
X009489D01*
X009449Y008969D01*
X009409Y009009D01*
X009369D01*
Y008969D01*
X009409Y008929D01*
X009369Y008889D01*
Y008849D01*
Y008259D02*
X009409D01*
X009449Y008299D01*
X009489Y008259D01*
X009529D01*
Y008299D01*
X009489Y008339D01*
X009529Y008379D01*
Y008419D01*
X009489D01*
X009449Y008379D01*
X009409Y008419D01*
X009369D01*
Y008379D01*
X009409Y008339D01*
X009369Y008299D01*
Y008259D01*
X012529Y00944D02*
X012569D01*
X012609Y00948D01*
X012649Y00944D01*
X012689D01*
Y00948D01*
X012649Y00952D01*
X012689Y00956D01*
Y0096D01*
X012649D01*
X012609Y00956D01*
X012569Y0096D01*
X012529D01*
Y00956D01*
X012569Y00952D01*
X012529Y00948D01*
Y00944D01*
X015639D02*
X015679D01*
X015719Y00948D01*
X015759Y00944D01*
X015799D01*
Y00948D01*
X015759Y00952D01*
X015799Y00956D01*
Y0096D01*
X015759D01*
X015719Y00956D01*
X015679Y0096D01*
X015639D01*
Y00956D01*
X015679Y00952D01*
X015639Y00948D01*
Y00944D01*
X018749D02*
X018789D01*
X018829Y00948D01*
X018869Y00944D01*
X018909D01*
Y00948D01*
X018869Y00952D01*
X018909Y00956D01*
Y0096D01*
X018869D01*
X018829Y00956D01*
X018789Y0096D01*
X018749D01*
Y00956D01*
X018789Y00952D01*
X018749Y00948D01*
Y00944D01*
Y008849D02*
X018789D01*
X018829Y008889D01*
X018869Y008849D01*
X018909D01*
Y008889D01*
X018869Y008929D01*
X018909Y008969D01*
Y009009D01*
X018869D01*
X018829Y008969D01*
X018789Y009009D01*
X018749D01*
Y008969D01*
X018789Y008929D01*
X018749Y008889D01*
Y008849D01*
X015639D02*
X015679D01*
X015719Y008889D01*
X015759Y008849D01*
X015799D01*
Y008889D01*
X015759Y008929D01*
X015799Y008969D01*
Y009009D01*
X015759D01*
X015719Y008969D01*
X015679Y009009D01*
X015639D01*
Y008969D01*
X015679Y008929D01*
X015639Y008889D01*
Y008849D01*
X012529D02*
X012569D01*
X012609Y008889D01*
X012649Y008849D01*
X012689D01*
Y008889D01*
X012649Y008929D01*
X012689Y008969D01*
Y009009D01*
X012649D01*
X012609Y008969D01*
X012569Y009009D01*
X012529D01*
Y008969D01*
X012569Y008929D01*
X012529Y008889D01*
Y008849D01*
X018749Y008259D02*
X018789D01*
X018829Y008299D01*
X018869Y008259D01*
X018909D01*
Y008299D01*
X018869Y008339D01*
X018909Y008379D01*
Y008419D01*
X018869D01*
X018829Y008379D01*
X018789Y008419D01*
X018749D01*
Y008379D01*
X018789Y008339D01*
X018749Y008299D01*
Y008259D01*
X015639D02*
X015679D01*
X015719Y008299D01*
X015759Y008259D01*
X015799D01*
Y008299D01*
X015759Y008339D01*
X015799Y008379D01*
Y008419D01*
X015759D01*
X015719Y008379D01*
X015679Y008419D01*
X015639D01*
Y008379D01*
X015679Y008339D01*
X015639Y008299D01*
Y008259D01*
X012529D02*
X012569D01*
X012609Y008299D01*
X012649Y008259D01*
X012689D01*
Y008299D01*
X012649Y008339D01*
X012689Y008379D01*
Y008419D01*
X012649D01*
X012609Y008379D01*
X012569Y008419D01*
X012529D01*
Y008379D01*
X012569Y008339D01*
X012529Y008299D01*
Y008259D01*
X01312D02*
X01316D01*
X0132Y008299D01*
X01324Y008259D01*
X01328D01*
Y008299D01*
X01324Y008339D01*
X01328Y008379D01*
Y008419D01*
X01324D01*
X0132Y008379D01*
X01316Y008419D01*
X01312D01*
Y008379D01*
X01316Y008339D01*
X01312Y008299D01*
Y008259D01*
X01623D02*
X01627D01*
X01631Y008299D01*
X01635Y008259D01*
X01639D01*
Y008299D01*
X01635Y008339D01*
X01639Y008379D01*
Y008419D01*
X01635D01*
X01631Y008379D01*
X01627Y008419D01*
X01623D01*
Y008379D01*
X01627Y008339D01*
X01623Y008299D01*
Y008259D01*
X01934D02*
X01938D01*
X01942Y008299D01*
X01946Y008259D01*
X0195D01*
Y008299D01*
X01946Y008339D01*
X0195Y008379D01*
Y008419D01*
X01946D01*
X01942Y008379D01*
X01938Y008419D01*
X01934D01*
Y008379D01*
X01938Y008339D01*
X01934Y008299D01*
Y008259D01*
X01312Y008849D02*
X01316D01*
X0132Y008889D01*
X01324Y008849D01*
X01328D01*
Y008889D01*
X01324Y008929D01*
X01328Y008969D01*
Y009009D01*
X01324D01*
X0132Y008969D01*
X01316Y009009D01*
X01312D01*
Y008969D01*
X01316Y008929D01*
X01312Y008889D01*
Y008849D01*
X01623D02*
X01627D01*
X01631Y008889D01*
X01635Y008849D01*
X01639D01*
Y008889D01*
X01635Y008929D01*
X01639Y008969D01*
Y009009D01*
X01635D01*
X01631Y008969D01*
X01627Y009009D01*
X01623D01*
Y008969D01*
X01627Y008929D01*
X01623Y008889D01*
Y008849D01*
X01934D02*
X01938D01*
X01942Y008889D01*
X01946Y008849D01*
X0195D01*
Y008889D01*
X01946Y008929D01*
X0195Y008969D01*
Y009009D01*
X01946D01*
X01942Y008969D01*
X01938Y009009D01*
X01934D01*
Y008969D01*
X01938Y008929D01*
X01934Y008889D01*
Y008849D01*
Y00944D02*
X01938D01*
X01942Y00948D01*
X01946Y00944D01*
X0195D01*
Y00948D01*
X01946Y00952D01*
X0195Y00956D01*
Y0096D01*
X01946D01*
X01942Y00956D01*
X01938Y0096D01*
X01934D01*
Y00956D01*
X01938Y00952D01*
X01934Y00948D01*
Y00944D01*
X01623D02*
X01627D01*
X01631Y00948D01*
X01635Y00944D01*
X01639D01*
Y00948D01*
X01635Y00952D01*
X01639Y00956D01*
Y0096D01*
X01635D01*
X01631Y00956D01*
X01627Y0096D01*
X01623D01*
Y00956D01*
X01627Y00952D01*
X01623Y00948D01*
Y00944D01*
X01312D02*
X01316D01*
X0132Y00948D01*
X01324Y00944D01*
X01328D01*
Y00948D01*
X01324Y00952D01*
X01328Y00956D01*
Y0096D01*
X01324D01*
X0132Y00956D01*
X01316Y0096D01*
X01312D01*
Y00956D01*
X01316Y00952D01*
X01312Y00948D01*
Y00944D01*
X00996Y008259D02*
X01D01*
X01004Y008299D01*
X01008Y008259D01*
X01012D01*
Y008299D01*
X01008Y008339D01*
X01012Y008379D01*
Y008419D01*
X01008D01*
X01004Y008379D01*
X01Y008419D01*
X00996D01*
Y008379D01*
X01Y008339D01*
X00996Y008299D01*
Y008259D01*
Y008849D02*
X01D01*
X01004Y008889D01*
X01008Y008849D01*
X01012D01*
Y008889D01*
X01008Y008929D01*
X01012Y008969D01*
Y009009D01*
X01008D01*
X01004Y008969D01*
X01Y009009D01*
X00996D01*
Y008969D01*
X01Y008929D01*
X00996Y008889D01*
Y008849D01*
Y00944D02*
X01D01*
X01004Y00948D01*
X01008Y00944D01*
X01012D01*
Y00948D01*
X01008Y00952D01*
X01012Y00956D01*
Y0096D01*
X01008D01*
X01004Y00956D01*
X01Y0096D01*
X00996D01*
Y00956D01*
X01Y00952D01*
X00996Y00948D01*
Y00944D01*
X009671Y00766D02*
X009711D01*
X009751Y0077D01*
X009791Y00766D01*
X009831D01*
Y0077D01*
X009791Y00774D01*
X009831Y00778D01*
Y00782D01*
X009791D01*
X009751Y00778D01*
X009711Y00782D01*
X009671D01*
Y00778D01*
X009711Y00774D01*
X009671Y0077D01*
Y00766D01*
X010261D02*
X010301D01*
X010341Y0077D01*
X010381Y00766D01*
X010421D01*
Y0077D01*
X010381Y00774D01*
X010421Y00778D01*
Y00782D01*
X010381D01*
X010341Y00778D01*
X010301Y00782D01*
X010261D01*
Y00778D01*
X010301Y00774D01*
X010261Y0077D01*
Y00766D01*
X010852D02*
X010892D01*
X010932Y0077D01*
X010972Y00766D01*
X011012D01*
Y0077D01*
X010972Y00774D01*
X011012Y00778D01*
Y00782D01*
X010972D01*
X010932Y00778D01*
X010892Y00782D01*
X010852D01*
Y00778D01*
X010892Y00774D01*
X010852Y0077D01*
Y00766D01*
X011442D02*
X011482D01*
X011522Y0077D01*
X011562Y00766D01*
X011602D01*
Y0077D01*
X011562Y00774D01*
X011602Y00778D01*
Y00782D01*
X011562D01*
X011522Y00778D01*
X011482Y00782D01*
X011442D01*
Y00778D01*
X011482Y00774D01*
X011442Y0077D01*
Y00766D01*
X012033D02*
X012073D01*
X012113Y0077D01*
X012153Y00766D01*
X012193D01*
Y0077D01*
X012153Y00774D01*
X012193Y00778D01*
Y00782D01*
X012153D01*
X012113Y00778D01*
X012073Y00782D01*
X012033D01*
Y00778D01*
X012073Y00774D01*
X012033Y0077D01*
Y00766D01*
X016167D02*
X016207D01*
X016247Y0077D01*
X016287Y00766D01*
X016327D01*
Y0077D01*
X016287Y00774D01*
X016327Y00778D01*
Y00782D01*
X016287D01*
X016247Y00778D01*
X016207Y00782D01*
X016167D01*
Y00778D01*
X016207Y00774D01*
X016167Y0077D01*
Y00766D01*
X016757D02*
X016797D01*
X016837Y0077D01*
X016877Y00766D01*
X016917D01*
Y0077D01*
X016877Y00774D01*
X016917Y00778D01*
Y00782D01*
X016877D01*
X016837Y00778D01*
X016797Y00782D01*
X016757D01*
Y00778D01*
X016797Y00774D01*
X016757Y0077D01*
Y00766D01*
X017938D02*
X017978D01*
X018018Y0077D01*
X018058Y00766D01*
X018098D01*
Y0077D01*
X018058Y00774D01*
X018098Y00778D01*
Y00782D01*
X018058D01*
X018018Y00778D01*
X017978Y00782D01*
X017938D01*
Y00778D01*
X017978Y00774D01*
X017938Y0077D01*
Y00766D01*
X018529D02*
X018569D01*
X018609Y0077D01*
X018649Y00766D01*
X018689D01*
Y0077D01*
X018649Y00774D01*
X018689Y00778D01*
Y00782D01*
X018649D01*
X018609Y00778D01*
X018569Y00782D01*
X018529D01*
Y00778D01*
X018569Y00774D01*
X018529Y0077D01*
Y00766D01*
X020891D02*
X020931D01*
X020971Y0077D01*
X021011Y00766D01*
X021051D01*
Y0077D01*
X021011Y00774D01*
X021051Y00778D01*
Y00782D01*
X021011D01*
X020971Y00778D01*
X020931Y00782D01*
X020891D01*
Y00778D01*
X020931Y00774D01*
X020891Y0077D01*
Y00766D01*
X0203D02*
X02034D01*
X02038Y0077D01*
X02042Y00766D01*
X02046D01*
Y0077D01*
X02042Y00774D01*
X02046Y00778D01*
Y00782D01*
X02042D01*
X02038Y00778D01*
X02034Y00782D01*
X0203D01*
Y00778D01*
X02034Y00774D01*
X0203Y0077D01*
Y00766D01*
X01971D02*
X01975D01*
X01979Y0077D01*
X01983Y00766D01*
X01987D01*
Y0077D01*
X01983Y00774D01*
X01987Y00778D01*
Y00782D01*
X01983D01*
X01979Y00778D01*
X01975Y00782D01*
X01971D01*
Y00778D01*
X01975Y00774D01*
X01971Y0077D01*
Y00766D01*
X019119D02*
X019159D01*
X019199Y0077D01*
X019239Y00766D01*
X019279D01*
Y0077D01*
X019239Y00774D01*
X019279Y00778D01*
Y00782D01*
X019239D01*
X019199Y00778D01*
X019159Y00782D01*
X019119D01*
Y00778D01*
X019159Y00774D01*
X019119Y0077D01*
Y00766D01*
X017348D02*
X017388D01*
X017428Y0077D01*
X017468Y00766D01*
X017508D01*
Y0077D01*
X017468Y00774D01*
X017508Y00778D01*
Y00782D01*
X017468D01*
X017428Y00778D01*
X017388Y00782D01*
X017348D01*
Y00778D01*
X017388Y00774D01*
X017348Y0077D01*
Y00766D01*
X015576D02*
X015616D01*
X015656Y0077D01*
X015696Y00766D01*
X015736D01*
Y0077D01*
X015696Y00774D01*
X015736Y00778D01*
Y00782D01*
X015696D01*
X015656Y00778D01*
X015616Y00782D01*
X015576D01*
Y00778D01*
X015616Y00774D01*
X015576Y0077D01*
Y00766D01*
X014986D02*
X015026D01*
X015065Y0077D01*
X015106Y00766D01*
X015145D01*
Y0077D01*
X015106Y00774D01*
X015145Y00778D01*
Y00782D01*
X015106D01*
X015065Y00778D01*
X015026Y00782D01*
X014986D01*
Y00778D01*
X015026Y00774D01*
X014986Y0077D01*
Y00766D01*
X014395D02*
X014435D01*
X014475Y0077D01*
X014515Y00766D01*
X014555D01*
Y0077D01*
X014515Y00774D01*
X014555Y00778D01*
Y00782D01*
X014515D01*
X014475Y00778D01*
X014435Y00782D01*
X014395D01*
Y00778D01*
X014435Y00774D01*
X014395Y0077D01*
Y00766D01*
X013804D02*
X013844D01*
X013884Y0077D01*
X013924Y00766D01*
X013964D01*
Y0077D01*
X013924Y00774D01*
X013964Y00778D01*
Y00782D01*
X013924D01*
X013884Y00778D01*
X013844Y00782D01*
X013804D01*
Y00778D01*
X013844Y00774D01*
X013804Y0077D01*
Y00766D01*
X013214D02*
X013254D01*
X013294Y0077D01*
X013334Y00766D01*
X013374D01*
Y0077D01*
X013334Y00774D01*
X013374Y00778D01*
Y00782D01*
X013334D01*
X013294Y00778D01*
X013254Y00782D01*
X013214D01*
Y00778D01*
X013254Y00774D01*
X013214Y0077D01*
Y00766D01*
X012623D02*
X012663D01*
X012703Y0077D01*
X012743Y00766D01*
X012783D01*
Y0077D01*
X012743Y00774D01*
X012783Y00778D01*
Y00782D01*
X012743D01*
X012703Y00778D01*
X012663Y00782D01*
X012623D01*
Y00778D01*
X012663Y00774D01*
X012623Y0077D01*
Y00766D01*
X00908D02*
X00912D01*
X00916Y0077D01*
X0092Y00766D01*
X00924D01*
Y0077D01*
X0092Y00774D01*
X00924Y00778D01*
Y00782D01*
X0092D01*
X00916Y00778D01*
X00912Y00782D01*
X00908D01*
Y00778D01*
X00912Y00774D01*
X00908Y0077D01*
Y00766D01*
X013214Y004707D02*
X013254D01*
X013294Y004747D01*
X013334Y004707D01*
X013374D01*
Y004747D01*
X013334Y004787D01*
X013374Y004827D01*
Y004867D01*
X013334D01*
X013294Y004827D01*
X013254Y004867D01*
X013214D01*
Y004827D01*
X013254Y004787D01*
X013214Y004747D01*
Y004707D01*
X012623D02*
X012663D01*
X012703Y004747D01*
X012743Y004707D01*
X012783D01*
Y004747D01*
X012743Y004787D01*
X012783Y004827D01*
Y004867D01*
X012743D01*
X012703Y004827D01*
X012663Y004867D01*
X012623D01*
Y004827D01*
X012663Y004787D01*
X012623Y004747D01*
Y004707D01*
X012033D02*
X012073D01*
X012113Y004747D01*
X012153Y004707D01*
X012193D01*
Y004747D01*
X012153Y004787D01*
X012193Y004827D01*
Y004867D01*
X012153D01*
X012113Y004827D01*
X012073Y004867D01*
X012033D01*
Y004827D01*
X012073Y004787D01*
X012033Y004747D01*
Y004707D01*
X011442D02*
X011482D01*
X011522Y004747D01*
X011562Y004707D01*
X011602D01*
Y004747D01*
X011562Y004787D01*
X011602Y004827D01*
Y004867D01*
X011562D01*
X011522Y004827D01*
X011482Y004867D01*
X011442D01*
Y004827D01*
X011482Y004787D01*
X011442Y004747D01*
Y004707D01*
X010852D02*
X010892D01*
X010932Y004747D01*
X010972Y004707D01*
X011012D01*
Y004747D01*
X010972Y004787D01*
X011012Y004827D01*
Y004867D01*
X010972D01*
X010932Y004827D01*
X010892Y004867D01*
X010852D01*
Y004827D01*
X010892Y004787D01*
X010852Y004747D01*
Y004707D01*
X010261D02*
X010301D01*
X010341Y004747D01*
X010381Y004707D01*
X010421D01*
Y004747D01*
X010381Y004787D01*
X010421Y004827D01*
Y004867D01*
X010381D01*
X010341Y004827D01*
X010301Y004867D01*
X010261D01*
Y004827D01*
X010301Y004787D01*
X010261Y004747D01*
Y004707D01*
X009671D02*
X009711D01*
X009751Y004747D01*
X009791Y004707D01*
X009831D01*
Y004747D01*
X009791Y004787D01*
X009831Y004827D01*
Y004867D01*
X009791D01*
X009751Y004827D01*
X009711Y004867D01*
X009671D01*
Y004827D01*
X009711Y004787D01*
X009671Y004747D01*
Y004707D01*
X00908D02*
X00912D01*
X00916Y004747D01*
X0092Y004707D01*
X00924D01*
Y004747D01*
X0092Y004787D01*
X00924Y004827D01*
Y004867D01*
X0092D01*
X00916Y004827D01*
X00912Y004867D01*
X00908D01*
Y004827D01*
X00912Y004787D01*
X00908Y004747D01*
Y004707D01*
X013214Y005298D02*
X013254D01*
X013294Y005338D01*
X013334Y005298D01*
X013374D01*
Y005338D01*
X013334Y005378D01*
X013374Y005418D01*
Y005458D01*
X013334D01*
X013294Y005418D01*
X013254Y005458D01*
X013214D01*
Y005418D01*
X013254Y005378D01*
X013214Y005338D01*
Y005298D01*
X012623D02*
X012663D01*
X012703Y005338D01*
X012743Y005298D01*
X012783D01*
Y005338D01*
X012743Y005378D01*
X012783Y005418D01*
Y005458D01*
X012743D01*
X012703Y005418D01*
X012663Y005458D01*
X012623D01*
Y005418D01*
X012663Y005378D01*
X012623Y005338D01*
Y005298D01*
X012033D02*
X012073D01*
X012113Y005338D01*
X012153Y005298D01*
X012193D01*
Y005338D01*
X012153Y005378D01*
X012193Y005418D01*
Y005458D01*
X012153D01*
X012113Y005418D01*
X012073Y005458D01*
X012033D01*
Y005418D01*
X012073Y005378D01*
X012033Y005338D01*
Y005298D01*
X011442D02*
X011482D01*
X011522Y005338D01*
X011562Y005298D01*
X011602D01*
Y005338D01*
X011562Y005378D01*
X011602Y005418D01*
Y005458D01*
X011562D01*
X011522Y005418D01*
X011482Y005458D01*
X011442D01*
Y005418D01*
X011482Y005378D01*
X011442Y005338D01*
Y005298D01*
X010852D02*
X010892D01*
X010932Y005338D01*
X010972Y005298D01*
X011012D01*
Y005338D01*
X010972Y005378D01*
X011012Y005418D01*
Y005458D01*
X010972D01*
X010932Y005418D01*
X010892Y005458D01*
X010852D01*
Y005418D01*
X010892Y005378D01*
X010852Y005338D01*
Y005298D01*
X010261D02*
X010301D01*
X010341Y005338D01*
X010381Y005298D01*
X010421D01*
Y005338D01*
X010381Y005378D01*
X010421Y005418D01*
Y005458D01*
X010381D01*
X010341Y005418D01*
X010301Y005458D01*
X010261D01*
Y005418D01*
X010301Y005378D01*
X010261Y005338D01*
Y005298D01*
X009671D02*
X009711D01*
X009751Y005338D01*
X009791Y005298D01*
X009831D01*
Y005338D01*
X009791Y005378D01*
X009831Y005418D01*
Y005458D01*
X009791D01*
X009751Y005418D01*
X009711Y005458D01*
X009671D01*
Y005418D01*
X009711Y005378D01*
X009671Y005338D01*
Y005298D01*
X00908D02*
X00912D01*
X00916Y005338D01*
X0092Y005298D01*
X00924D01*
Y005338D01*
X0092Y005378D01*
X00924Y005418D01*
Y005458D01*
X0092D01*
X00916Y005418D01*
X00912Y005458D01*
X00908D01*
Y005418D01*
X00912Y005378D01*
X00908Y005338D01*
Y005298D01*
X00912D01*
X00916Y005338D01*
X0092Y005298D01*
X00924D01*
Y005338D01*
X0092Y005378D01*
X00924Y005418D01*
Y005458D01*
X0092D01*
X00916Y005418D01*
X00912Y005458D01*
X00908D01*
Y005418D01*
X00912Y005378D01*
X00908Y005338D01*
Y005298D01*
X009671D02*
X009711D01*
X009751Y005338D01*
X009791Y005298D01*
X009831D01*
Y005338D01*
X009791Y005378D01*
X009831Y005418D01*
Y005458D01*
X009791D01*
X009751Y005418D01*
X009711Y005458D01*
X009671D01*
Y005418D01*
X009711Y005378D01*
X009671Y005338D01*
Y005298D01*
X010261D02*
X010301D01*
X010341Y005338D01*
X010381Y005298D01*
X010421D01*
Y005338D01*
X010381Y005378D01*
X010421Y005418D01*
Y005458D01*
X010381D01*
X010341Y005418D01*
X010301Y005458D01*
X010261D01*
Y005418D01*
X010301Y005378D01*
X010261Y005338D01*
Y005298D01*
X010852D02*
X010892D01*
X010932Y005338D01*
X010972Y005298D01*
X011012D01*
Y005338D01*
X010972Y005378D01*
X011012Y005418D01*
Y005458D01*
X010972D01*
X010932Y005418D01*
X010892Y005458D01*
X010852D01*
Y005418D01*
X010892Y005378D01*
X010852Y005338D01*
Y005298D01*
X011442D02*
X011482D01*
X011522Y005338D01*
X011562Y005298D01*
X011602D01*
Y005338D01*
X011562Y005378D01*
X011602Y005418D01*
Y005458D01*
X011562D01*
X011522Y005418D01*
X011482Y005458D01*
X011442D01*
Y005418D01*
X011482Y005378D01*
X011442Y005338D01*
Y005298D01*
X012033D02*
X012073D01*
X012113Y005338D01*
X012153Y005298D01*
X012193D01*
Y005338D01*
X012153Y005378D01*
X012193Y005418D01*
Y005458D01*
X012153D01*
X012113Y005418D01*
X012073Y005458D01*
X012033D01*
Y005418D01*
X012073Y005378D01*
X012033Y005338D01*
Y005298D01*
X012623D02*
X012663D01*
X012703Y005338D01*
X012743Y005298D01*
X012783D01*
Y005338D01*
X012743Y005378D01*
X012783Y005418D01*
Y005458D01*
X012743D01*
X012703Y005418D01*
X012663Y005458D01*
X012623D01*
Y005418D01*
X012663Y005378D01*
X012623Y005338D01*
Y005298D01*
X013214D02*
X013254D01*
X013294Y005338D01*
X013334Y005298D01*
X013374D01*
Y005338D01*
X013334Y005378D01*
X013374Y005418D01*
Y005458D01*
X013334D01*
X013294Y005418D01*
X013254Y005458D01*
X013214D01*
Y005418D01*
X013254Y005378D01*
X013214Y005338D01*
Y005298D01*
X013804D02*
X013844D01*
X013884Y005338D01*
X013924Y005298D01*
X013964D01*
Y005338D01*
X013924Y005378D01*
X013964Y005418D01*
Y005458D01*
X013924D01*
X013884Y005418D01*
X013844Y005458D01*
X013804D01*
Y005418D01*
X013844Y005378D01*
X013804Y005338D01*
Y005298D01*
X014395D02*
X014435D01*
X014475Y005338D01*
X014515Y005298D01*
X014555D01*
Y005338D01*
X014515Y005378D01*
X014555Y005418D01*
Y005458D01*
X014515D01*
X014475Y005418D01*
X014435Y005458D01*
X014395D01*
Y005418D01*
X014435Y005378D01*
X014395Y005338D01*
Y005298D01*
X014986D02*
X015026D01*
X015065Y005338D01*
X015106Y005298D01*
X015145D01*
Y005338D01*
X015106Y005378D01*
X015145Y005418D01*
Y005458D01*
X015106D01*
X015065Y005418D01*
X015026Y005458D01*
X014986D01*
Y005418D01*
X015026Y005378D01*
X014986Y005338D01*
Y005298D01*
X015576D02*
X015616D01*
X015656Y005338D01*
X015696Y005298D01*
X015736D01*
Y005338D01*
X015696Y005378D01*
X015736Y005418D01*
Y005458D01*
X015696D01*
X015656Y005418D01*
X015616Y005458D01*
X015576D01*
Y005418D01*
X015616Y005378D01*
X015576Y005338D01*
Y005298D01*
X016167D02*
X016207D01*
X016247Y005338D01*
X016287Y005298D01*
X016327D01*
Y005338D01*
X016287Y005378D01*
X016327Y005418D01*
Y005458D01*
X016287D01*
X016247Y005418D01*
X016207Y005458D01*
X016167D01*
Y005418D01*
X016207Y005378D01*
X016167Y005338D01*
Y005298D01*
X016757D02*
X016797D01*
X016837Y005338D01*
X016877Y005298D01*
X016917D01*
Y005338D01*
X016877Y005378D01*
X016917Y005418D01*
Y005458D01*
X016877D01*
X016837Y005418D01*
X016797Y005458D01*
X016757D01*
Y005418D01*
X016797Y005378D01*
X016757Y005338D01*
Y005298D01*
X017348D02*
X017388D01*
X017428Y005338D01*
X017468Y005298D01*
X017508D01*
Y005338D01*
X017468Y005378D01*
X017508Y005418D01*
Y005458D01*
X017468D01*
X017428Y005418D01*
X017388Y005458D01*
X017348D01*
Y005418D01*
X017388Y005378D01*
X017348Y005338D01*
Y005298D01*
X017938D02*
X017978D01*
X018018Y005338D01*
X018058Y005298D01*
X018098D01*
Y005338D01*
X018058Y005378D01*
X018098Y005418D01*
Y005458D01*
X018058D01*
X018018Y005418D01*
X017978Y005458D01*
X017938D01*
Y005418D01*
X017978Y005378D01*
X017938Y005338D01*
Y005298D01*
X018529D02*
X018569D01*
X018609Y005338D01*
X018649Y005298D01*
X018689D01*
Y005338D01*
X018649Y005378D01*
X018689Y005418D01*
Y005458D01*
X018649D01*
X018609Y005418D01*
X018569Y005458D01*
X018529D01*
Y005418D01*
X018569Y005378D01*
X018529Y005338D01*
Y005298D01*
X019119D02*
X019159D01*
X019199Y005338D01*
X019239Y005298D01*
X019279D01*
Y005338D01*
X019239Y005378D01*
X019279Y005418D01*
Y005458D01*
X019239D01*
X019199Y005418D01*
X019159Y005458D01*
X019119D01*
Y005418D01*
X019159Y005378D01*
X019119Y005338D01*
Y005298D01*
X01971D02*
X01975D01*
X01979Y005338D01*
X01983Y005298D01*
X01987D01*
Y005338D01*
X01983Y005378D01*
X01987Y005418D01*
Y005458D01*
X01983D01*
X01979Y005418D01*
X01975Y005458D01*
X01971D01*
Y005418D01*
X01975Y005378D01*
X01971Y005338D01*
Y005298D01*
X0203D02*
X02034D01*
X02038Y005338D01*
X02042Y005298D01*
X02046D01*
Y005338D01*
X02042Y005378D01*
X02046Y005418D01*
Y005458D01*
X02042D01*
X02038Y005418D01*
X02034Y005458D01*
X0203D01*
Y005418D01*
X02034Y005378D01*
X0203Y005338D01*
Y005298D01*
X020891D02*
X020931D01*
X020971Y005338D01*
X021011Y005298D01*
X021051D01*
Y005338D01*
X021011Y005378D01*
X021051Y005418D01*
Y005458D01*
X021011D01*
X020971Y005418D01*
X020931Y005458D01*
X020891D01*
Y005418D01*
X020931Y005378D01*
X020891Y005338D01*
Y005298D01*
X00908Y005888D02*
X00912D01*
X00916Y005928D01*
X0092Y005888D01*
X00924D01*
Y005928D01*
X0092Y005968D01*
X00924Y006008D01*
Y006048D01*
X0092D01*
X00916Y006008D01*
X00912Y006048D01*
X00908D01*
Y006008D01*
X00912Y005968D01*
X00908Y005928D01*
Y005888D01*
X009671D02*
X009711D01*
X009751Y005928D01*
X009791Y005888D01*
X009831D01*
Y005928D01*
X009791Y005968D01*
X009831Y006008D01*
Y006048D01*
X009791D01*
X009751Y006008D01*
X009711Y006048D01*
X009671D01*
Y006008D01*
X009711Y005968D01*
X009671Y005928D01*
Y005888D01*
X010261D02*
X010301D01*
X010341Y005928D01*
X010381Y005888D01*
X010421D01*
Y005928D01*
X010381Y005968D01*
X010421Y006008D01*
Y006048D01*
X010381D01*
X010341Y006008D01*
X010301Y006048D01*
X010261D01*
Y006008D01*
X010301Y005968D01*
X010261Y005928D01*
Y005888D01*
X010852D02*
X010892D01*
X010932Y005928D01*
X010972Y005888D01*
X011012D01*
Y005928D01*
X010972Y005968D01*
X011012Y006008D01*
Y006048D01*
X010972D01*
X010932Y006008D01*
X010892Y006048D01*
X010852D01*
Y006008D01*
X010892Y005968D01*
X010852Y005928D01*
Y005888D01*
X011442D02*
X011482D01*
X011522Y005928D01*
X011562Y005888D01*
X011602D01*
Y005928D01*
X011562Y005968D01*
X011602Y006008D01*
Y006048D01*
X011562D01*
X011522Y006008D01*
X011482Y006048D01*
X011442D01*
Y006008D01*
X011482Y005968D01*
X011442Y005928D01*
Y005888D01*
X012033D02*
X012073D01*
X012113Y005928D01*
X012153Y005888D01*
X012193D01*
Y005928D01*
X012153Y005968D01*
X012193Y006008D01*
Y006048D01*
X012153D01*
X012113Y006008D01*
X012073Y006048D01*
X012033D01*
Y006008D01*
X012073Y005968D01*
X012033Y005928D01*
Y005888D01*
X012623D02*
X012663D01*
X012703Y005928D01*
X012743Y005888D01*
X012783D01*
Y005928D01*
X012743Y005968D01*
X012783Y006008D01*
Y006048D01*
X012743D01*
X012703Y006008D01*
X012663Y006048D01*
X012623D01*
Y006008D01*
X012663Y005968D01*
X012623Y005928D01*
Y005888D01*
X013214D02*
X013254D01*
X013294Y005928D01*
X013334Y005888D01*
X013374D01*
Y005928D01*
X013334Y005968D01*
X013374Y006008D01*
Y006048D01*
X013334D01*
X013294Y006008D01*
X013254Y006048D01*
X013214D01*
Y006008D01*
X013254Y005968D01*
X013214Y005928D01*
Y005888D01*
X013804D02*
X013844D01*
X013884Y005928D01*
X013924Y005888D01*
X013964D01*
Y005928D01*
X013924Y005968D01*
X013964Y006008D01*
Y006048D01*
X013924D01*
X013884Y006008D01*
X013844Y006048D01*
X013804D01*
Y006008D01*
X013844Y005968D01*
X013804Y005928D01*
Y005888D01*
X014395D02*
X014435D01*
X014475Y005928D01*
X014515Y005888D01*
X014555D01*
Y005928D01*
X014515Y005968D01*
X014555Y006008D01*
Y006048D01*
X014515D01*
X014475Y006008D01*
X014435Y006048D01*
X014395D01*
Y006008D01*
X014435Y005968D01*
X014395Y005928D01*
Y005888D01*
X014986D02*
X015026D01*
X015065Y005928D01*
X015106Y005888D01*
X015145D01*
Y005928D01*
X015106Y005968D01*
X015145Y006008D01*
Y006048D01*
X015106D01*
X015065Y006008D01*
X015026Y006048D01*
X014986D01*
Y006008D01*
X015026Y005968D01*
X014986Y005928D01*
Y005888D01*
X015576D02*
X015616D01*
X015656Y005928D01*
X015696Y005888D01*
X015736D01*
Y005928D01*
X015696Y005968D01*
X015736Y006008D01*
Y006048D01*
X015696D01*
X015656Y006008D01*
X015616Y006048D01*
X015576D01*
Y006008D01*
X015616Y005968D01*
X015576Y005928D01*
Y005888D01*
X016167D02*
X016207D01*
X016247Y005928D01*
X016287Y005888D01*
X016327D01*
Y005928D01*
X016287Y005968D01*
X016327Y006008D01*
Y006048D01*
X016287D01*
X016247Y006008D01*
X016207Y006048D01*
X016167D01*
Y006008D01*
X016207Y005968D01*
X016167Y005928D01*
Y005888D01*
X016757D02*
X016797D01*
X016837Y005928D01*
X016877Y005888D01*
X016917D01*
Y005928D01*
X016877Y005968D01*
X016917Y006008D01*
Y006048D01*
X016877D01*
X016837Y006008D01*
X016797Y006048D01*
X016757D01*
Y006008D01*
X016797Y005968D01*
X016757Y005928D01*
Y005888D01*
X017348D02*
X017388D01*
X017428Y005928D01*
X017468Y005888D01*
X017508D01*
Y005928D01*
X017468Y005968D01*
X017508Y006008D01*
Y006048D01*
X017468D01*
X017428Y006008D01*
X017388Y006048D01*
X017348D01*
Y006008D01*
X017388Y005968D01*
X017348Y005928D01*
Y005888D01*
X017938D02*
X017978D01*
X018018Y005928D01*
X018058Y005888D01*
X018098D01*
Y005928D01*
X018058Y005968D01*
X018098Y006008D01*
Y006048D01*
X018058D01*
X018018Y006008D01*
X017978Y006048D01*
X017938D01*
Y006008D01*
X017978Y005968D01*
X017938Y005928D01*
Y005888D01*
X018529D02*
X018569D01*
X018609Y005928D01*
X018649Y005888D01*
X018689D01*
Y005928D01*
X018649Y005968D01*
X018689Y006008D01*
Y006048D01*
X018649D01*
X018609Y006008D01*
X018569Y006048D01*
X018529D01*
Y006008D01*
X018569Y005968D01*
X018529Y005928D01*
Y005888D01*
X019119D02*
X019159D01*
X019199Y005928D01*
X019239Y005888D01*
X019279D01*
Y005928D01*
X019239Y005968D01*
X019279Y006008D01*
Y006048D01*
X019239D01*
X019199Y006008D01*
X019159Y006048D01*
X019119D01*
Y006008D01*
X019159Y005968D01*
X019119Y005928D01*
Y005888D01*
X01971D02*
X01975D01*
X01979Y005928D01*
X01983Y005888D01*
X01987D01*
Y005928D01*
X01983Y005968D01*
X01987Y006008D01*
Y006048D01*
X01983D01*
X01979Y006008D01*
X01975Y006048D01*
X01971D01*
Y006008D01*
X01975Y005968D01*
X01971Y005928D01*
Y005888D01*
X0203D02*
X02034D01*
X02038Y005928D01*
X02042Y005888D01*
X02046D01*
Y005928D01*
X02042Y005968D01*
X02046Y006008D01*
Y006048D01*
X02042D01*
X02038Y006008D01*
X02034Y006048D01*
X0203D01*
Y006008D01*
X02034Y005968D01*
X0203Y005928D01*
Y005888D01*
X020891D02*
X020931D01*
X020971Y005928D01*
X021011Y005888D01*
X021051D01*
Y005928D01*
X021011Y005968D01*
X021051Y006008D01*
Y006048D01*
X021011D01*
X020971Y006008D01*
X020931Y006048D01*
X020891D01*
Y006008D01*
X020931Y005968D01*
X020891Y005928D01*
Y005888D01*
X00908Y006479D02*
X00912D01*
X00916Y006519D01*
X0092Y006479D01*
X00924D01*
Y006519D01*
X0092Y006559D01*
X00924Y006599D01*
Y006639D01*
X0092D01*
X00916Y006599D01*
X00912Y006639D01*
X00908D01*
Y006599D01*
X00912Y006559D01*
X00908Y006519D01*
Y006479D01*
X009671D02*
X009711D01*
X009751Y006519D01*
X009791Y006479D01*
X009831D01*
Y006519D01*
X009791Y006559D01*
X009831Y006599D01*
Y006639D01*
X009791D01*
X009751Y006599D01*
X009711Y006639D01*
X009671D01*
Y006599D01*
X009711Y006559D01*
X009671Y006519D01*
Y006479D01*
X010261D02*
X010301D01*
X010341Y006519D01*
X010381Y006479D01*
X010421D01*
Y006519D01*
X010381Y006559D01*
X010421Y006599D01*
Y006639D01*
X010381D01*
X010341Y006599D01*
X010301Y006639D01*
X010261D01*
Y006599D01*
X010301Y006559D01*
X010261Y006519D01*
Y006479D01*
X010852D02*
X010892D01*
X010932Y006519D01*
X010972Y006479D01*
X011012D01*
Y006519D01*
X010972Y006559D01*
X011012Y006599D01*
Y006639D01*
X010972D01*
X010932Y006599D01*
X010892Y006639D01*
X010852D01*
Y006599D01*
X010892Y006559D01*
X010852Y006519D01*
Y006479D01*
X011442D02*
X011482D01*
X011522Y006519D01*
X011562Y006479D01*
X011602D01*
Y006519D01*
X011562Y006559D01*
X011602Y006599D01*
Y006639D01*
X011562D01*
X011522Y006599D01*
X011482Y006639D01*
X011442D01*
Y006599D01*
X011482Y006559D01*
X011442Y006519D01*
Y006479D01*
X012033D02*
X012073D01*
X012113Y006519D01*
X012153Y006479D01*
X012193D01*
Y006519D01*
X012153Y006559D01*
X012193Y006599D01*
Y006639D01*
X012153D01*
X012113Y006599D01*
X012073Y006639D01*
X012033D01*
Y006599D01*
X012073Y006559D01*
X012033Y006519D01*
Y006479D01*
X012623D02*
X012663D01*
X012703Y006519D01*
X012743Y006479D01*
X012783D01*
Y006519D01*
X012743Y006559D01*
X012783Y006599D01*
Y006639D01*
X012743D01*
X012703Y006599D01*
X012663Y006639D01*
X012623D01*
Y006599D01*
X012663Y006559D01*
X012623Y006519D01*
Y006479D01*
X013214D02*
X013254D01*
X013294Y006519D01*
X013334Y006479D01*
X013374D01*
Y006519D01*
X013334Y006559D01*
X013374Y006599D01*
Y006639D01*
X013334D01*
X013294Y006599D01*
X013254Y006639D01*
X013214D01*
Y006599D01*
X013254Y006559D01*
X013214Y006519D01*
Y006479D01*
X013804D02*
X013844D01*
X013884Y006519D01*
X013924Y006479D01*
X013964D01*
Y006519D01*
X013924Y006559D01*
X013964Y006599D01*
Y006639D01*
X013924D01*
X013884Y006599D01*
X013844Y006639D01*
X013804D01*
Y006599D01*
X013844Y006559D01*
X013804Y006519D01*
Y006479D01*
X014395D02*
X014435D01*
X014475Y006519D01*
X014515Y006479D01*
X014555D01*
Y006519D01*
X014515Y006559D01*
X014555Y006599D01*
Y006639D01*
X014515D01*
X014475Y006599D01*
X014435Y006639D01*
X014395D01*
Y006599D01*
X014435Y006559D01*
X014395Y006519D01*
Y006479D01*
X014986D02*
X015026D01*
X015065Y006519D01*
X015106Y006479D01*
X015145D01*
Y006519D01*
X015106Y006559D01*
X015145Y006599D01*
Y006639D01*
X015106D01*
X015065Y006599D01*
X015026Y006639D01*
X014986D01*
Y006599D01*
X015026Y006559D01*
X014986Y006519D01*
Y006479D01*
X015576D02*
X015616D01*
X015656Y006519D01*
X015696Y006479D01*
X015736D01*
Y006519D01*
X015696Y006559D01*
X015736Y006599D01*
Y006639D01*
X015696D01*
X015656Y006599D01*
X015616Y006639D01*
X015576D01*
Y006599D01*
X015616Y006559D01*
X015576Y006519D01*
Y006479D01*
X016167D02*
X016207D01*
X016247Y006519D01*
X016287Y006479D01*
X016327D01*
Y006519D01*
X016287Y006559D01*
X016327Y006599D01*
Y006639D01*
X016287D01*
X016247Y006599D01*
X016207Y006639D01*
X016167D01*
Y006599D01*
X016207Y006559D01*
X016167Y006519D01*
Y006479D01*
X016757D02*
X016797D01*
X016837Y006519D01*
X016877Y006479D01*
X016917D01*
Y006519D01*
X016877Y006559D01*
X016917Y006599D01*
Y006639D01*
X016877D01*
X016837Y006599D01*
X016797Y006639D01*
X016757D01*
Y006599D01*
X016797Y006559D01*
X016757Y006519D01*
Y006479D01*
X017348D02*
X017388D01*
X017428Y006519D01*
X017468Y006479D01*
X017508D01*
Y006519D01*
X017468Y006559D01*
X017508Y006599D01*
Y006639D01*
X017468D01*
X017428Y006599D01*
X017388Y006639D01*
X017348D01*
Y006599D01*
X017388Y006559D01*
X017348Y006519D01*
Y006479D01*
X017938D02*
X017978D01*
X018018Y006519D01*
X018058Y006479D01*
X018098D01*
Y006519D01*
X018058Y006559D01*
X018098Y006599D01*
Y006639D01*
X018058D01*
X018018Y006599D01*
X017978Y006639D01*
X017938D01*
Y006599D01*
X017978Y006559D01*
X017938Y006519D01*
Y006479D01*
X018529D02*
X018569D01*
X018609Y006519D01*
X018649Y006479D01*
X018689D01*
Y006519D01*
X018649Y006559D01*
X018689Y006599D01*
Y006639D01*
X018649D01*
X018609Y006599D01*
X018569Y006639D01*
X018529D01*
Y006599D01*
X018569Y006559D01*
X018529Y006519D01*
Y006479D01*
X019119D02*
X019159D01*
X019199Y006519D01*
X019239Y006479D01*
X019279D01*
Y006519D01*
X019239Y006559D01*
X019279Y006599D01*
Y006639D01*
X019239D01*
X019199Y006599D01*
X019159Y006639D01*
X019119D01*
Y006599D01*
X019159Y006559D01*
X019119Y006519D01*
Y006479D01*
X01971D02*
X01975D01*
X01979Y006519D01*
X01983Y006479D01*
X01987D01*
Y006519D01*
X01983Y006559D01*
X01987Y006599D01*
Y006639D01*
X01983D01*
X01979Y006599D01*
X01975Y006639D01*
X01971D01*
Y006599D01*
X01975Y006559D01*
X01971Y006519D01*
Y006479D01*
X0203D02*
X02034D01*
X02038Y006519D01*
X02042Y006479D01*
X02046D01*
Y006519D01*
X02042Y006559D01*
X02046Y006599D01*
Y006639D01*
X02042D01*
X02038Y006599D01*
X02034Y006639D01*
X0203D01*
Y006599D01*
X02034Y006559D01*
X0203Y006519D01*
Y006479D01*
X020891D02*
X020931D01*
X020971Y006519D01*
X021011Y006479D01*
X021051D01*
Y006519D01*
X021011Y006559D01*
X021051Y006599D01*
Y006639D01*
X021011D01*
X020971Y006599D01*
X020931Y006639D01*
X020891D01*
Y006599D01*
X020931Y006559D01*
X020891Y006519D01*
Y006479D01*
X00908Y007069D02*
X00912D01*
X00916Y007109D01*
X0092Y007069D01*
X00924D01*
Y007109D01*
X0092Y007149D01*
X00924Y007189D01*
Y007229D01*
X0092D01*
X00916Y007189D01*
X00912Y007229D01*
X00908D01*
Y007189D01*
X00912Y007149D01*
X00908Y007109D01*
Y007069D01*
X009671D02*
X009711D01*
X009751Y007109D01*
X009791Y007069D01*
X009831D01*
Y007109D01*
X009791Y007149D01*
X009831Y007189D01*
Y007229D01*
X009791D01*
X009751Y007189D01*
X009711Y007229D01*
X009671D01*
Y007189D01*
X009711Y007149D01*
X009671Y007109D01*
Y007069D01*
X010261D02*
X010301D01*
X010341Y007109D01*
X010381Y007069D01*
X010421D01*
Y007109D01*
X010381Y007149D01*
X010421Y007189D01*
Y007229D01*
X010381D01*
X010341Y007189D01*
X010301Y007229D01*
X010261D01*
Y007189D01*
X010301Y007149D01*
X010261Y007109D01*
Y007069D01*
X010852D02*
X010892D01*
X010932Y007109D01*
X010972Y007069D01*
X011012D01*
Y007109D01*
X010972Y007149D01*
X011012Y007189D01*
Y007229D01*
X010972D01*
X010932Y007189D01*
X010892Y007229D01*
X010852D01*
Y007189D01*
X010892Y007149D01*
X010852Y007109D01*
Y007069D01*
X011442D02*
X011482D01*
X011522Y007109D01*
X011562Y007069D01*
X011602D01*
Y007109D01*
X011562Y007149D01*
X011602Y007189D01*
Y007229D01*
X011562D01*
X011522Y007189D01*
X011482Y007229D01*
X011442D01*
Y007189D01*
X011482Y007149D01*
X011442Y007109D01*
Y007069D01*
X012033D02*
X012073D01*
X012113Y007109D01*
X012153Y007069D01*
X012193D01*
Y007109D01*
X012153Y007149D01*
X012193Y007189D01*
Y007229D01*
X012153D01*
X012113Y007189D01*
X012073Y007229D01*
X012033D01*
Y007189D01*
X012073Y007149D01*
X012033Y007109D01*
Y007069D01*
X012623D02*
X012663D01*
X012703Y007109D01*
X012743Y007069D01*
X012783D01*
Y007109D01*
X012743Y007149D01*
X012783Y007189D01*
Y007229D01*
X012743D01*
X012703Y007189D01*
X012663Y007229D01*
X012623D01*
Y007189D01*
X012663Y007149D01*
X012623Y007109D01*
Y007069D01*
X013214D02*
X013254D01*
X013294Y007109D01*
X013334Y007069D01*
X013374D01*
Y007109D01*
X013334Y007149D01*
X013374Y007189D01*
Y007229D01*
X013334D01*
X013294Y007189D01*
X013254Y007229D01*
X013214D01*
Y007189D01*
X013254Y007149D01*
X013214Y007109D01*
Y007069D01*
X013804D02*
X013844D01*
X013884Y007109D01*
X013924Y007069D01*
X013964D01*
Y007109D01*
X013924Y007149D01*
X013964Y007189D01*
Y007229D01*
X013924D01*
X013884Y007189D01*
X013844Y007229D01*
X013804D01*
Y007189D01*
X013844Y007149D01*
X013804Y007109D01*
Y007069D01*
X014395D02*
X014435D01*
X014475Y007109D01*
X014515Y007069D01*
X014555D01*
Y007109D01*
X014515Y007149D01*
X014555Y007189D01*
Y007229D01*
X014515D01*
X014475Y007189D01*
X014435Y007229D01*
X014395D01*
Y007189D01*
X014435Y007149D01*
X014395Y007109D01*
Y007069D01*
X014986D02*
X015026D01*
X015065Y007109D01*
X015106Y007069D01*
X015145D01*
Y007109D01*
X015106Y007149D01*
X015145Y007189D01*
Y007229D01*
X015106D01*
X015065Y007189D01*
X015026Y007229D01*
X014986D01*
Y007189D01*
X015026Y007149D01*
X014986Y007109D01*
Y007069D01*
X015576D02*
X015616D01*
X015656Y007109D01*
X015696Y007069D01*
X015736D01*
Y007109D01*
X015696Y007149D01*
X015736Y007189D01*
Y007229D01*
X015696D01*
X015656Y007189D01*
X015616Y007229D01*
X015576D01*
Y007189D01*
X015616Y007149D01*
X015576Y007109D01*
Y007069D01*
X016167D02*
X016207D01*
X016247Y007109D01*
X016287Y007069D01*
X016327D01*
Y007109D01*
X016287Y007149D01*
X016327Y007189D01*
Y007229D01*
X016287D01*
X016247Y007189D01*
X016207Y007229D01*
X016167D01*
Y007189D01*
X016207Y007149D01*
X016167Y007109D01*
Y007069D01*
X016757D02*
X016797D01*
X016837Y007109D01*
X016877Y007069D01*
X016917D01*
Y007109D01*
X016877Y007149D01*
X016917Y007189D01*
Y007229D01*
X016877D01*
X016837Y007189D01*
X016797Y007229D01*
X016757D01*
Y007189D01*
X016797Y007149D01*
X016757Y007109D01*
Y007069D01*
X017348D02*
X017388D01*
X017428Y007109D01*
X017468Y007069D01*
X017508D01*
Y007109D01*
X017468Y007149D01*
X017508Y007189D01*
Y007229D01*
X017468D01*
X017428Y007189D01*
X017388Y007229D01*
X017348D01*
Y007189D01*
X017388Y007149D01*
X017348Y007109D01*
Y007069D01*
X017938D02*
X017978D01*
X018018Y007109D01*
X018058Y007069D01*
X018098D01*
Y007109D01*
X018058Y007149D01*
X018098Y007189D01*
Y007229D01*
X018058D01*
X018018Y007189D01*
X017978Y007229D01*
X017938D01*
Y007189D01*
X017978Y007149D01*
X017938Y007109D01*
Y007069D01*
X018529D02*
X018569D01*
X018609Y007109D01*
X018649Y007069D01*
X018689D01*
Y007109D01*
X018649Y007149D01*
X018689Y007189D01*
Y007229D01*
X018649D01*
X018609Y007189D01*
X018569Y007229D01*
X018529D01*
Y007189D01*
X018569Y007149D01*
X018529Y007109D01*
Y007069D01*
X019119D02*
X019159D01*
X019199Y007109D01*
X019239Y007069D01*
X019279D01*
Y007109D01*
X019239Y007149D01*
X019279Y007189D01*
Y007229D01*
X019239D01*
X019199Y007189D01*
X019159Y007229D01*
X019119D01*
Y007189D01*
X019159Y007149D01*
X019119Y007109D01*
Y007069D01*
X01971D02*
X01975D01*
X01979Y007109D01*
X01983Y007069D01*
X01987D01*
Y007109D01*
X01983Y007149D01*
X01987Y007189D01*
Y007229D01*
X01983D01*
X01979Y007189D01*
X01975Y007229D01*
X01971D01*
Y007189D01*
X01975Y007149D01*
X01971Y007109D01*
Y007069D01*
X0203D02*
X02034D01*
X02038Y007109D01*
X02042Y007069D01*
X02046D01*
Y007109D01*
X02042Y007149D01*
X02046Y007189D01*
Y007229D01*
X02042D01*
X02038Y007189D01*
X02034Y007229D01*
X0203D01*
Y007189D01*
X02034Y007149D01*
X0203Y007109D01*
Y007069D01*
X020891D02*
X020931D01*
X020971Y007109D01*
X021011Y007069D01*
X021051D01*
Y007109D01*
X021011Y007149D01*
X021051Y007189D01*
Y007229D01*
X021011D01*
X020971Y007189D01*
X020931Y007229D01*
X020891D01*
Y007189D01*
X020931Y007149D01*
X020891Y007109D01*
Y007069D01*
X01801Y01946D02*
X01805D01*
X01809Y0195D01*
X01813Y01946D01*
X01817D01*
Y0195D01*
X01813Y01954D01*
X01817Y01958D01*
Y01962D01*
X01813D01*
X01809Y01958D01*
X01805Y01962D01*
X01801D01*
Y01958D01*
X01805Y01954D01*
X01801Y0195D01*
Y01946D01*
X030071Y016994D02*
X030111D01*
X030151Y017034D01*
X030191Y016994D01*
X030231D01*
Y017034D01*
X030191Y017074D01*
X030231Y017114D01*
Y017154D01*
X030191D01*
X030151Y017114D01*
X030111Y017154D01*
X030071D01*
Y017114D01*
X030111Y017074D01*
X030071Y017034D01*
Y016994D01*
X02637Y02162D02*
X02641D01*
X02645Y02166D01*
X02649Y02162D01*
X02653D01*
Y02166D01*
X02649Y0217D01*
X02653Y02174D01*
Y02178D01*
X02649D01*
X02645Y02174D01*
X02641Y02178D01*
X02637D01*
Y02174D01*
X02641Y0217D01*
X02637Y02166D01*
Y02162D01*
X02702Y01862D02*
X02706D01*
X0271Y01866D01*
X02714Y01862D01*
X02718D01*
Y01866D01*
X02714Y0187D01*
X02718Y01874D01*
Y01878D01*
X02714D01*
X0271Y01874D01*
X02706Y01878D01*
X02702D01*
Y01874D01*
X02706Y0187D01*
X02702Y01866D01*
Y01862D01*
X01297Y01352D02*
X01301D01*
X01305Y01356D01*
X01309Y01352D01*
X01313D01*
Y01356D01*
X01309Y0136D01*
X01313Y01364D01*
Y01368D01*
X01309D01*
X01305Y01364D01*
X01301Y01368D01*
X01297D01*
Y01364D01*
X01301Y0136D01*
X01297Y01356D01*
Y01352D01*
X01697Y00102D02*
X01701D01*
X01705Y00106D01*
X01709Y00102D01*
X01713D01*
Y00106D01*
X01709Y0011D01*
X01713Y00114D01*
Y00118D01*
X01709D01*
X01705Y00114D01*
X01701Y00118D01*
X01697D01*
Y00114D01*
X01701Y0011D01*
X01697Y00106D01*
Y00102D01*
X01732Y01907D02*
X01736D01*
X0174Y01911D01*
X01744Y01907D01*
X01748D01*
Y01911D01*
X01744Y01915D01*
X01748Y01919D01*
Y01923D01*
X01744D01*
X0174Y01919D01*
X01736Y01923D01*
X01732D01*
Y01919D01*
X01736Y01915D01*
X01732Y01911D01*
Y01907D01*
X022117Y019593D02*
X022157D01*
X022197Y019633D01*
X022237Y019593D01*
X022277D01*
Y019633D01*
X022237Y019673D01*
X022277Y019713D01*
Y019753D01*
X022237D01*
X022197Y019713D01*
X022157Y019753D01*
X022117D01*
Y019713D01*
X022157Y019673D01*
X022117Y019633D01*
Y019593D01*
X01687Y01917D02*
X01691D01*
X01695Y01921D01*
X01699Y01917D01*
X01703D01*
Y01921D01*
X01699Y01925D01*
X01703Y01929D01*
Y01933D01*
X01699D01*
X01695Y01929D01*
X01691Y01933D01*
X01687D01*
Y01929D01*
X01691Y01925D01*
X01687Y01921D01*
Y01917D01*
X00972Y011622D02*
X00976D01*
X0098Y011662D01*
X00984Y011622D01*
X00988D01*
Y011662D01*
X00984Y011702D01*
X00988Y011742D01*
Y011782D01*
X00984D01*
X0098Y011742D01*
X00976Y011782D01*
X00972D01*
Y011742D01*
X00976Y011702D01*
X00972Y011662D01*
Y011622D01*
X01007Y015552D02*
X01011D01*
X01015Y015592D01*
X01019Y015552D01*
X01023D01*
Y015592D01*
X01019Y015632D01*
X01023Y015672D01*
Y015712D01*
X01019D01*
X01015Y015672D01*
X01011Y015712D01*
X01007D01*
Y015672D01*
X01011Y015632D01*
X01007Y015592D01*
Y015552D01*
X009904Y019236D02*
X009944D01*
X009984Y019276D01*
X010024Y019236D01*
X010064D01*
Y019276D01*
X010024Y019316D01*
X010064Y019356D01*
Y019396D01*
X010024D01*
X009984Y019356D01*
X009944Y019396D01*
X009904D01*
Y019356D01*
X009944Y019316D01*
X009904Y019276D01*
Y019236D01*
X01032Y01627D02*
X01036D01*
X0104Y01631D01*
X01044Y01627D01*
X01048D01*
Y01631D01*
X01044Y01635D01*
X01048Y01639D01*
Y01643D01*
X01044D01*
X0104Y01639D01*
X01036Y01643D01*
X01032D01*
Y01639D01*
X01036Y01635D01*
X01032Y01631D01*
Y01627D01*
X01907Y01547D02*
X01911D01*
X01915Y01551D01*
X01919Y01547D01*
X01923D01*
Y01551D01*
X01919Y01555D01*
X01923Y01559D01*
Y01563D01*
X01919D01*
X01915Y01559D01*
X01911Y01563D01*
X01907D01*
Y01559D01*
X01911Y01555D01*
X01907Y01551D01*
Y01547D01*
X01972Y016803D02*
X01976D01*
X0198Y016843D01*
X01984Y016803D01*
X01988D01*
Y016843D01*
X01984Y016883D01*
X01988Y016923D01*
Y016963D01*
X01984D01*
X0198Y016923D01*
X01976Y016963D01*
X01972D01*
Y016923D01*
X01976Y016883D01*
X01972Y016843D01*
Y016803D01*
X02902Y01212D02*
X02906D01*
X0291Y01216D01*
X02914Y01212D01*
X02918D01*
Y01216D01*
X02914Y0122D01*
X02918Y01224D01*
Y01228D01*
X02914D01*
X0291Y01224D01*
X02906Y01228D01*
X02902D01*
Y01224D01*
X02906Y0122D01*
X02902Y01216D01*
Y01212D01*
X01387Y01972D02*
X01391D01*
X01395Y01976D01*
X01399Y01972D01*
X01403D01*
Y01976D01*
X01399Y0198D01*
X01403Y01984D01*
Y01988D01*
X01399D01*
X01395Y01984D01*
X01391Y01988D01*
X01387D01*
Y01984D01*
X01391Y0198D01*
X01387Y01976D01*
Y01972D01*
X02857Y01147D02*
X02861D01*
X02865Y01151D01*
X02869Y01147D01*
X02873D01*
Y01151D01*
X02869Y01155D01*
X02873Y01159D01*
Y01163D01*
X02869D01*
X02865Y01159D01*
X02861Y01163D01*
X02857D01*
Y01159D01*
X02861Y01155D01*
X02857Y01151D01*
Y01147D01*
X02752D02*
X02756D01*
X0276Y01151D01*
X02764Y01147D01*
X02768D01*
Y01151D01*
X02764Y01155D01*
X02768Y01159D01*
Y01163D01*
X02764D01*
X0276Y01159D01*
X02756Y01163D01*
X02752D01*
Y01159D01*
X02756Y01155D01*
X02752Y01151D01*
Y01147D01*
X02362Y01567D02*
X02366D01*
X0237Y01571D01*
X02374Y01567D01*
X02378D01*
Y01571D01*
X02374Y01575D01*
X02378Y01579D01*
Y01583D01*
X02374D01*
X0237Y01579D01*
X02366Y01583D01*
X02362D01*
Y01579D01*
X02366Y01575D01*
X02362Y01571D01*
Y01567D01*
X02532Y01897D02*
X02536D01*
X0254Y01901D01*
X02544Y01897D01*
X02548D01*
Y01901D01*
X02544Y01905D01*
X02548Y01909D01*
Y01913D01*
X02544D01*
X0254Y01909D01*
X02536Y01913D01*
X02532D01*
Y01909D01*
X02536Y01905D01*
X02532Y01901D01*
Y01897D01*
X02462D02*
X02466D01*
X0247Y01901D01*
X02474Y01897D01*
X02478D01*
Y01901D01*
X02474Y01905D01*
X02478Y01909D01*
Y01913D01*
X02474D01*
X0247Y01909D01*
X02466Y01913D01*
X02462D01*
Y01909D01*
X02466Y01905D01*
X02462Y01901D01*
Y01897D01*
X01317Y02237D02*
X01321D01*
X01325Y02241D01*
X01329Y02237D01*
X01333D01*
Y02241D01*
X01329Y02245D01*
X01333Y02249D01*
Y02253D01*
X01329D01*
X01325Y02249D01*
X01321Y02253D01*
X01317D01*
Y02249D01*
X01321Y02245D01*
X01317Y02241D01*
Y02237D01*
X01582Y01602D02*
X01586D01*
X0159Y01606D01*
X01594Y01602D01*
X01598D01*
Y01606D01*
X01594Y0161D01*
X01598Y01614D01*
Y01618D01*
X01594D01*
X0159Y01614D01*
X01586Y01618D01*
X01582D01*
Y01614D01*
X01586Y0161D01*
X01582Y01606D01*
Y01602D01*
X01327Y01117D02*
X01331D01*
X01335Y01121D01*
X01339Y01117D01*
X01343D01*
Y01121D01*
X01339Y01125D01*
X01343Y01129D01*
Y01133D01*
X01339D01*
X01335Y01129D01*
X01331Y01133D01*
X01327D01*
Y01129D01*
X01331Y01125D01*
X01327Y01121D01*
Y01117D01*
X02332Y01962D02*
X02336D01*
X0234Y01966D01*
X02344Y01962D01*
X02348D01*
Y01966D01*
X02344Y0197D01*
X02348Y01974D01*
Y01978D01*
X02344D01*
X0234Y01974D01*
X02336Y01978D01*
X02332D01*
Y01974D01*
X02336Y0197D01*
X02332Y01966D01*
Y01962D01*
X00972Y01587D02*
X00976D01*
X0098Y01591D01*
X00984Y01587D01*
X00988D01*
Y01591D01*
X00984Y01595D01*
X00988Y01599D01*
Y01603D01*
X00984D01*
X0098Y01599D01*
X00976Y01603D01*
X00972D01*
Y01599D01*
X00976Y01595D01*
X00972Y01591D01*
Y01587D01*
X014887Y01497D02*
X014927D01*
X014967Y01501D01*
X015007Y01497D01*
X015047D01*
Y01501D01*
X015007Y01505D01*
X015047Y01509D01*
Y01513D01*
X015007D01*
X014967Y01509D01*
X014927Y01513D01*
X014887D01*
Y01509D01*
X014927Y01505D01*
X014887Y01501D01*
Y01497D01*
X01042Y01877D02*
X01046D01*
X0105Y01881D01*
X01054Y01877D01*
X01058D01*
Y01881D01*
X01054Y01885D01*
X01058Y01889D01*
Y01893D01*
X01054D01*
X0105Y01889D01*
X01046Y01893D01*
X01042D01*
Y01889D01*
X01046Y01885D01*
X01042Y01881D01*
Y01877D01*
Y01832D02*
X01046D01*
X0105Y01836D01*
X01054Y01832D01*
X01058D01*
Y01836D01*
X01054Y0184D01*
X01058Y01844D01*
Y01848D01*
X01054D01*
X0105Y01844D01*
X01046Y01848D01*
X01042D01*
Y01844D01*
X01046Y0184D01*
X01042Y01836D01*
Y01832D01*
X01187Y01282D02*
X01191D01*
X01195Y01286D01*
X01199Y01282D01*
X01203D01*
Y01286D01*
X01199Y0129D01*
X01203Y01294D01*
Y01298D01*
X01199D01*
X01195Y01294D01*
X01191Y01298D01*
X01187D01*
Y01294D01*
X01191Y0129D01*
X01187Y01286D01*
Y01282D01*
X01137D02*
X01141D01*
X01145Y01286D01*
X01149Y01282D01*
X01153D01*
Y01286D01*
X01149Y0129D01*
X01153Y01294D01*
Y01298D01*
X01149D01*
X01145Y01294D01*
X01141Y01298D01*
X01137D01*
Y01294D01*
X01141Y0129D01*
X01137Y01286D01*
Y01282D01*
X01087D02*
X01091D01*
X01095Y01286D01*
X01099Y01282D01*
X01103D01*
Y01286D01*
X01099Y0129D01*
X01103Y01294D01*
Y01298D01*
X01099D01*
X01095Y01294D01*
X01091Y01298D01*
X01087D01*
Y01294D01*
X01091Y0129D01*
X01087Y01286D01*
Y01282D01*
X03012Y01497D02*
X03016D01*
X0302Y01501D01*
X03024Y01497D01*
X03028D01*
Y01501D01*
X03024Y01505D01*
X03028Y01509D01*
Y01513D01*
X03024D01*
X0302Y01509D01*
X03016Y01513D01*
X03012D01*
Y01509D01*
X03016Y01505D01*
X03012Y01501D01*
Y01497D01*
X01932Y00107D02*
X01936D01*
X0194Y00111D01*
X01944Y00107D01*
X01948D01*
Y00111D01*
X01944Y00115D01*
X01948Y00119D01*
Y00123D01*
X01944D01*
X0194Y00119D01*
X01936Y00123D01*
X01932D01*
Y00119D01*
X01936Y00115D01*
X01932Y00111D01*
Y00107D01*
X020388Y016838D02*
X020428D01*
X020468Y016878D01*
X020508Y016838D01*
X020548D01*
Y016878D01*
X020508Y016918D01*
X020548Y016958D01*
Y016998D01*
X020508D01*
X020468Y016958D01*
X020428Y016998D01*
X020388D01*
Y016958D01*
X020428Y016918D01*
X020388Y016878D01*
Y016838D01*
X02107Y01682D02*
X02111D01*
X02115Y01686D01*
X02119Y01682D01*
X02123D01*
Y01686D01*
X02119Y0169D01*
X02123Y01694D01*
Y01698D01*
X02119D01*
X02115Y01694D01*
X02111Y01698D01*
X02107D01*
Y01694D01*
X02111Y0169D01*
X02107Y01686D01*
Y01682D01*
X01862Y02252D02*
X01866D01*
X0187Y02256D01*
X01874Y02252D01*
X01878D01*
Y02256D01*
X01874Y0226D01*
X01878Y02264D01*
Y02268D01*
X01874D01*
X0187Y02264D01*
X01866Y02268D01*
X01862D01*
Y02264D01*
X01866Y0226D01*
X01862Y02256D01*
Y02252D01*
X01627D02*
X01631D01*
X01635Y02256D01*
X01639Y02252D01*
X01643D01*
Y02256D01*
X01639Y0226D01*
X01643Y02264D01*
Y02268D01*
X01639D01*
X01635Y02264D01*
X01631Y02268D01*
X01627D01*
Y02264D01*
X01631Y0226D01*
X01627Y02256D01*
Y02252D01*
D110*
X008509Y0205D02*
G03*
X008509Y0205I-00008J0D01*
G01*
Y02151D02*
G03*
X008509Y02151I-00008J0D01*
G01*
Y02249D02*
G03*
X008509Y02249I-00008J0D01*
G01*
Y0235D02*
G03*
X008509Y0235I-00008J0D01*
G01*
X031182Y017025D02*
G03*
X031182Y017025I-00008J0D01*
G01*
Y018005D02*
G03*
X031182Y018005I-00008J0D01*
G01*
Y019015D02*
G03*
X031182Y019015I-00008J0D01*
G01*
X02498Y0241D02*
G03*
X02498Y0241I-00008J0D01*
G01*
X02398D02*
G03*
X02398Y0241I-00008J0D01*
G01*
X02298D02*
G03*
X02298Y0241I-00008J0D01*
G01*
X02198D02*
G03*
X02198Y0241I-00008J0D01*
G01*
X02598D02*
G03*
X02598Y0241I-00008J0D01*
G01*
X02074D02*
G03*
X02074Y0241I-00008J0D01*
G01*
X01973D02*
G03*
X01973Y0241I-00008J0D01*
G01*
X01875D02*
G03*
X01875Y0241I-00008J0D01*
G01*
X01774D02*
G03*
X01774Y0241I-00008J0D01*
G01*
X01656Y0241D02*
G03*
X01656Y0241I-00008J0D01*
G01*
X01558D02*
G03*
X01558Y0241I-00008J0D01*
G01*
X01457D02*
G03*
X01457Y0241I-00008J0D01*
G01*
X031182Y021725D02*
G03*
X031182Y021725I-00008J0D01*
G01*
Y022705D02*
G03*
X031182Y022705I-00008J0D01*
G01*
Y023715D02*
G03*
X031182Y023715I-00008J0D01*
G01*
M02*
